<?xml version="1.0" encoding="UTF-8"?>
<svg xmlns="http://www.w3.org/2000/svg" width="26pt" height="26pt"
     viewBox="0 0 26 26" version="1.1">
    <g id="surface1">
        <path style=" stroke:none;fill-rule:nonzero;fill:#FEFEFE;fill-opacity:1;"
              d="M 10.46875 0 L 9.90625 3.53125 C 9.054688 3.742188 8.234375 4.089844 7.5 4.53125 L 4.59375 2.4375 L 2.46875 4.5625 L 4.53125 7.5 C 4.085938 8.234375 3.746094 9.046875 3.53125 9.90625 L 0 10.46875 L 0 13.46875 L 3.53125 14.09375 C 3.742188 14.949219 4.085938 15.765625 4.53125 16.5 L 2.4375 19.40625 L 4.5625 21.53125 L 7.5 19.46875 C 8.234375 19.910156 9.023438 20.257813 9.875 20.46875 L 10.46875 24 L 12 24 L 12 16 C 9.796875 16 8 14.203125 8 12 C 8 9.796875 9.796875 8 12 8 C 14.203125 8 16 9.796875 16 12 L 24 12 L 24 10.46875 L 20.4375 9.90625 C 20.226563 9.058594 19.875 8.257813 19.4375 7.53125 L 21.53125 4.5625 L 19.40625 2.4375 L 16.46875 4.53125 C 15.738281 4.089844 14.945313 3.773438 14.09375 3.5625 L 13.46875 0 Z M 15 14 C 14.449219 14 14 14.449219 14 15 L 14 26 L 26 26 L 26 15 C 26 14.449219 25.550781 14 25 14 Z M 16 17 L 24 17 L 24 24 L 16 24 Z M 20.625 17.59375 C 20.59375 17.601563 20.5625 17.613281 20.53125 17.625 C 20.402344 17.652344 20.28125 17.71875 20.1875 17.8125 L 19 19 L 18.65625 18.65625 C 18.378906 18.378906 17.933594 18.378906 17.65625 18.65625 C 17.378906 18.933594 17.378906 19.378906 17.65625 19.65625 L 18.5 20.5 C 18.632813 20.632813 18.8125 20.710938 19 20.710938 C 19.1875 20.710938 19.367188 20.632813 19.5 20.5 L 21.1875 18.8125 C 21.421875 18.609375 21.492188 18.273438 21.359375 17.992188 C 21.230469 17.710938 20.933594 17.550781 20.625 17.59375 Z M 20.625 20.59375 C 20.59375 20.601563 20.5625 20.613281 20.53125 20.625 C 20.402344 20.652344 20.28125 20.71875 20.1875 20.8125 L 19 22 L 18.65625 21.65625 C 18.378906 21.378906 17.933594 21.378906 17.65625 21.65625 C 17.378906 21.933594 17.378906 22.378906 17.65625 22.65625 L 18.5 23.5 C 18.632813 23.632813 18.8125 23.710938 19 23.710938 C 19.1875 23.710938 19.367188 23.632813 19.5 23.5 L 21.1875 21.8125 C 21.421875 21.609375 21.492188 21.273438 21.359375 20.992188 C 21.230469 20.710938 20.933594 20.550781 20.625 20.59375 Z "/>
    </g>
</svg>
