<?xml version="1.0" encoding="UTF-8"?>
<svg xmlns="http://www.w3.org/2000/svg" width="50pt" height="50pt"
     viewBox="0 0 50 50" version="1.1">
    <g id="surface1">
        <path style=" stroke:none;fill-rule:nonzero;fill:#FFFFFF;fill-opacity:1;"
              d="M 25 0 C 12.441406 0 4 4.652344 4 9 C 4 13.34375 12.441406 18 25 18 C 37.5625 18 46 13.34375 46 9 C 46 4.652344 37.5625 0 25 0 Z M 4 13.609375 L 4 19.152344 C 4 23.425781 12.441406 28 25 28 C 37.5625 28 46 23.425781 46 19.152344 L 46 13.609375 C 42.328125 17.363281 34.414063 20 25 20 C 15.589844 20 7.671875 17.363281 4 13.609375 Z M 4 23.910156 L 4 29.195313 C 4 33.46875 12.441406 38 25 38 C 37.5625 38 46 33.46875 46 29.195313 L 46 23.910156 C 42.328125 27.664063 34.414063 30 25 30 C 15.589844 30 7.671875 27.664063 4 23.910156 Z M 4 33.953125 L 4 39.152344 C 4 43.421875 12.441406 48 25 48 C 37.5625 48 46 43.421875 46 39.152344 L 46 33.953125 C 42.328125 37.707031 34.414063 40 25 40 C 15.589844 40 7.671875 37.707031 4 33.953125 Z "/>
    </g>
</svg>
