<?xml version="1.0" encoding="UTF-8"?>
<svg xmlns="http://www.w3.org/2000/svg" width="24pt" height="24pt"
     viewBox="0 0 24 24" version="1.1">
    <g id="surface1">
        <path style=" stroke:none;fill-rule:nonzero;fill:#FEFEFE;fill-opacity:1;"
              d="M 6.75 3 C 5.515625 3 4.5 4.015625 4.5 5.25 L 4.5 18.75 C 4.5 19.984375 5.515625 21 6.75 21 L 19.5 21 L 19.5 3 Z M 6.75 4.5 L 18 4.5 L 18 16.5 L 6.75 16.5 C 6.488281 16.5 6.238281 16.554688 6 16.640625 L 6 5.25 C 6 4.824219 6.324219 4.5 6.75 4.5 Z M 8.25 6.75 L 8.25 8.25 L 16.5 8.25 L 16.5 6.75 Z M 6.75 18 L 18 18 L 18 19.5 L 6.75 19.5 C 6.324219 19.5 6 19.175781 6 18.75 C 6 18.324219 6.324219 18 6.75 18 Z "/>
    </g>
</svg>
