<?xml version="1.0" encoding="UTF-8"?>
<svg xmlns="http://www.w3.org/2000/svg" width="24pt" height="24pt"
     viewBox="0 0 24 24" version="1.1">
    <g id="surface1">
        <path style=" stroke:none;fill-rule:nonzero;fill:#FEFEFE;fill-opacity:1;"
              d="M 6 2 C 4.898438 2 4 2.898438 4 4 L 4 20 C 4 21.101563 4.898438 22 6 22 L 18 22 C 19.101563 22 20 21.101563 20 20 L 20 4 C 20 2.898438 19.101563 2 18 2 Z M 6 4 L 18 4 L 18 8 L 6 8 Z M 15 5 L 15 7 L 17 7 L 17 5 Z M 7 10 L 9 10 L 9 12 L 7 12 Z M 11 10 L 13 10 L 13 12 L 11 12 Z M 15 10 L 17 10 L 17 12 L 15 12 Z M 7 14 L 9 14 L 9 16 L 7 16 Z M 11 14 L 13 14 L 13 16 L 11 16 Z M 15 14 L 17 14 L 17 16 L 15 16 Z M 7 18 L 9 18 L 9 20 L 7 20 Z M 11 18 L 13 18 L 13 20 L 11 20 Z M 15 18 L 17 18 L 17 20 L 15 20 Z "/>
    </g>
</svg>
