<?xml version="1.0" encoding="UTF-8"?>
<svg xmlns="http://www.w3.org/2000/svg" width="48pt" height="48pt"
     viewBox="0 0 48 48" version="1.1">
    <g id="surface1">
        <path style=" stroke:none;fill-rule:nonzero;fill:#FEFEFE;fill-opacity:1;"
              d="M 10 6 C 8.953125 6 7.882813 6.367188 7.125 7.125 C 6.367188 7.882813 6 8.953125 6 10 L 6 14 L 10 14 L 10 10 L 38 10 L 38 34 L 42 34 L 42 10 C 42 8.953125 41.632813 7.882813 40.875 7.125 C 40.117188 6.367188 39.046875 6 38 6 Z M 10 16 C 7.789063 16 6 17.789063 6 20 C 6 22.210938 7.789063 24 10 24 C 12.210938 24 14 22.210938 14 20 C 14 17.789063 12.210938 16 10 16 Z M 24.5625 18.5625 L 18.8125 24.3125 L 13.75 26 L 4 26 L 4 42 L 16 42 L 16 29.4375 L 20.625 27.875 C 20.929688 27.796875 21.203125 27.648438 21.4375 27.4375 L 27.4375 21.4375 Z M 18 36 L 18 40 L 44 40 L 44 36 Z "/>
    </g>
</svg>
