<?xml version="1.0" encoding="UTF-8"?>
<svg xmlns="http://www.w3.org/2000/svg" width="24pt" height="24pt"
     viewBox="0 0 24 24" version="1.1">
    <g id="surface1">
        <path style=" stroke:none;fill-rule:nonzero;fill:#FEFEFE;fill-opacity:1;"
              d="M 9 2 C 7.894531 2 7 2.894531 7 4 C 7 5.105469 7.894531 6 9 6 C 10.105469 6 11 5.105469 11 4 C 11 2.894531 10.105469 2 9 2 Z M 3.40625 6.53125 L 2.3125 12.625 L 4.28125 12.96875 L 5.375 6.875 Z M 7.40625 7 C 6.90625 7 6.507813 7.3125 6.40625 7.8125 L 5.5 12.8125 C 5.300781 13.511719 5.601563 13.886719 6 14.6875 L 8.09375 18.09375 L 8.09375 17.9375 L 10 22 L 12 22 L 8.375 13.9375 L 8.40625 13.59375 L 8.9375 11.21875 L 9 11.8125 L 9 11.90625 L 9.03125 11.90625 C 9.078125 12.550781 9.367188 12.988281 9.40625 13.0625 L 9.46875 13.15625 L 9.53125 13.21875 L 11.3125 15.4375 L 12.875 14.15625 L 11.125 12.0625 L 11.0625 11.96875 C 11.042969 11.925781 11 11.75 11 11.8125 L 11 11.6875 L 10.6875 9 L 10.6875 8.84375 L 10.625 8.71875 C 10.15625 7.628906 9.082031 7 8 7 Z M 18.8125 7 C 17.984375 7 17.3125 7.671875 17.3125 8.5 C 17.3125 9.328125 17.984375 10 18.8125 10 C 19.640625 10 20.3125 9.328125 20.3125 8.5 C 20.3125 7.671875 19.640625 7 18.8125 7 Z M 14.3125 10.34375 L 13.5 14.9375 L 15.5 15.28125 L 16.28125 10.65625 Z M 17.59375 11 C 17.195313 11 16.90625 11.292969 16.90625 11.59375 L 16.1875 15.09375 C 16.085938 15.59375 16.292969 16 16.59375 16.5 L 18.1875 19.0625 L 18.1875 19.09375 L 19.59375 22 L 21.3125 22 L 18.4375 15.5625 L 18.53125 15 C 18.601563 15.253906 18.761719 15.46875 18.90625 15.6875 L 20.3125 17.3125 L 21.5 16.3125 L 20.1875 14.6875 C 20.1875 14.585938 20.09375 14.601563 20.09375 14.5 L 19.90625 12.5 L 19.8125 12.3125 C 19.449219 11.582031 18.820313 11.109375 18.03125 11.03125 L 18 11 Z M 5.40625 15.5 L 4.6875 18.8125 L 3 22 L 5 22 L 6.1875 19.6875 L 6.6875 17.5 Z M 16 17 L 15.3125 19.59375 L 14 22 L 15.8125 22 L 16.6875 20.40625 L 17.1875 18.8125 Z "/>
    </g>
</svg>
