<?xml version="1.0" encoding="UTF-8"?>
<svg xmlns="http://www.w3.org/2000/svg" width="50pt" height="50pt"
     viewBox="0 0 50 50" version="1.1">
    <g id="surface1">
        <path style=" stroke:none;fill-rule:nonzero;fill:#FEFEFE;fill-opacity:1;"
              d="M 23.4375 3.125 C 12.242188 3.125 3.125 12.242188 3.125 23.4375 C 3.125 34.632813 12.242188 43.75 23.4375 43.75 C 34.632813 43.75 43.75 34.632813 43.75 23.4375 C 43.75 12.242188 34.632813 3.125 23.4375 3.125 Z M 23.4375 6.25 C 32.945313 6.25 40.625 13.929688 40.625 23.4375 C 40.625 32.945313 32.945313 40.625 23.4375 40.625 C 13.929688 40.625 6.25 32.945313 6.25 23.4375 C 6.25 13.929688 13.929688 6.25 23.4375 6.25 Z M 21.875 9.375 L 21.875 25 L 31.25 25 L 31.25 21.875 L 25 21.875 L 25 9.375 Z "/>
    </g>
</svg>
