<?xml version="1.0" encoding="UTF-8"?>
<svg xmlns="http://www.w3.org/2000/svg" width="24pt" height="24pt"
     viewBox="0 0 24 24" version="1.1">
    <g id="surface1">
        <path style=" stroke:none;fill-rule:nonzero;fill:#FEFEFE;fill-opacity:1;"
              d="M 3.539063 2.460938 L 2.460938 3.539063 L 7.921875 9 L 3.75 9 L 3.75 10.5 L 10.5 10.5 L 10.5 3.75 L 9 3.75 L 9 7.921875 Z M 20.460938 2.460938 L 15 7.921875 L 15 3.75 L 13.5 3.75 L 13.5 10.5 L 20.25 10.5 L 20.25 9 L 16.078125 9 L 21.539063 3.539063 Z M 3.75 13.5 L 3.75 15 L 7.921875 15 L 2.460938 20.460938 L 3.539063 21.539063 L 9 16.078125 L 9 20.25 L 10.5 20.25 L 10.5 13.5 Z M 13.5 13.5 L 13.5 20.25 L 15 20.25 L 15 16.078125 L 20.460938 21.539063 L 21.539063 20.460938 L 16.078125 15 L 20.25 15 L 20.25 13.5 Z "/>
    </g>
</svg>
