<?xml version="1.0" encoding="UTF-8"?>
<svg xmlns="http://www.w3.org/2000/svg" width="30pt" height="30pt"
     viewBox="0 0 30 30" version="1.1">
    <g id="surface1">
        <path style=" stroke:none;fill-rule:nonzero;fill:#696969;fill-opacity:1;"
              d="M 4.6875 3.75 C 3.140625 3.75 1.875 5.015625 1.875 6.5625 L 1.875 21.5625 C 1.875 23.109375 3.140625 24.375 4.6875 24.375 L 13.777344 24.375 L 20.625 28.9375 L 20.625 24.375 L 23.4375 24.375 C 24.984375 24.375 26.25 23.109375 26.25 21.5625 L 26.25 6.5625 C 26.25 5.015625 24.984375 3.75 23.4375 3.75 Z M 4.6875 5.625 L 23.4375 5.625 C 23.964844 5.625 24.375 6.035156 24.375 6.5625 L 24.375 21.5625 C 24.375 22.089844 23.964844 22.5 23.4375 22.5 L 18.75 22.5 L 18.75 25.4375 L 14.347656 22.5 L 4.6875 22.5 C 4.160156 22.5 3.75 22.089844 3.75 21.5625 L 3.75 6.5625 C 3.75 6.035156 4.160156 5.625 4.6875 5.625 Z M 7.5 9.375 L 7.5 11.25 L 20.625 11.25 L 20.625 9.375 Z M 7.5 13.125 L 7.5 15 L 20.625 15 L 20.625 13.125 Z M 7.5 16.875 L 7.5 18.75 L 15 18.75 L 15 16.875 Z "/>
    </g>
</svg>
