<?xml version="1.0" encoding="UTF-8"?>
<svg xmlns="http://www.w3.org/2000/svg" width="24pt" height="24pt"
     viewBox="0 0 24 24" version="1.1">
    <g id="surface1">
        <path style=" stroke:none;fill-rule:nonzero;fill:#FEFEFE;fill-opacity:1;"
              d="M 10 3 L 10 21 L 16 21 L 16 3 Z M 3 5 L 3 21 L 9 21 L 9 5 Z M 11 5 L 15 5 L 15 6 L 11 6 Z M 4 7 L 8 7 L 8 8 L 4 8 Z M 17 7 L 17 21 L 21 21 L 21 7 Z M 12 8 L 14 8 L 14 16 L 12 16 Z M 18 9 L 20 9 L 20 10 L 18 10 Z M 5 10 L 7 10 L 7 16 L 5 16 Z M 4 18 L 8 18 L 8 19 L 4 19 Z M 11 18 L 15 18 L 15 19 L 11 19 Z M 18 18 L 20 18 L 20 19 L 18 19 Z "/>
    </g>
</svg>
