<?xml version="1.0" encoding="UTF-8"?>
<svg xmlns="http://www.w3.org/2000/svg" width="24pt" height="24pt"
     viewBox="0 0 24 24" version="1.1">
    <g id="surface1">
        <path style=" stroke:none;fill-rule:nonzero;fill:#FEFEFE;fill-opacity:1;"
              d="M 11.90625 3 L 11.835938 3.023438 L 5.835938 4.429688 L 5.25 4.570313 L 5.25 19.757813 L 5.859375 19.851563 L 11.859375 20.976563 L 11.929688 21 L 13.5 21 L 13.5 3 Z M 15 4.5 L 15 6 L 17.25 6 L 17.25 18 L 15 18 L 15 19.5 L 18.75 19.5 L 18.75 4.5 Z M 12 4.523438 L 12 19.5 L 6.75 18.515625 L 6.75 5.742188 Z M 10.757813 11.25 C 10.484375 11.25 10.242188 11.585938 10.242188 12 C 10.242188 12.414063 10.484375 12.75 10.757813 12.75 C 11.035156 12.75 11.25 12.414063 11.25 12 C 11.25 11.585938 11.035156 11.25 10.757813 11.25 Z "/>
    </g>
</svg>
