<?xml version="1.0" encoding="UTF-8"?>
<svg xmlns="http://www.w3.org/2000/svg" width="24pt" height="24pt"
     viewBox="0 0 24 24" version="1.1">
    <g id="surface1">
        <path style=" stroke:none;fill-rule:nonzero;fill:#FEFEFE;fill-opacity:1;"
              d="M 19.800781 10.101563 C 18.898438 6.601563 15.800781 4 12 4 C 9 4 6.398438 5.601563 5 8.101563 C 2.199219 8.601563 0 11 0 14 C 0 17.300781 2.699219 20 6 20 C 7 20 17.898438 20 19 20 C 21.800781 20 24 17.800781 24 15 C 24 12.5 22.199219 10.398438 19.800781 10.101563 Z M 11 13 L 11 9 L 13 9 L 13 13 L 16 13 L 12 18 L 8 13 Z "/>
    </g>
</svg>
