<?xml version="1.0" encoding="UTF-8"?>
<svg xmlns="http://www.w3.org/2000/svg" width="20pt" height="20pt"
     viewBox="0 0 20 20" version="1.1">
    <g id="surface1">
        <path style=" stroke:none;fill-rule:nonzero;fill:#FEFEFE;fill-opacity:1;"
              d="M 4.375 3.125 C 3.691406 3.125 3.125 3.691406 3.125 4.375 L 3.125 15.625 C 3.125 16.308594 3.691406 16.875 4.375 16.875 L 15.625 16.875 C 16.308594 16.875 16.875 16.308594 16.875 15.625 L 16.875 4.375 C 16.875 3.691406 16.308594 3.125 15.625 3.125 Z M 4.375 4.375 L 15.625 4.375 L 15.625 15.625 L 12.382813 15.625 L 12.382813 11.40625 L 14.003906 11.40625 L 14.238281 9.53125 L 12.382813 9.53125 L 12.382813 8.320313 C 12.382813 7.773438 12.515625 7.402344 13.300781 7.402344 L 14.316406 7.402344 L 14.316406 5.703125 C 14.144531 5.679688 13.542969 5.644531 12.851563 5.644531 C 11.410156 5.644531 10.429688 6.511719 10.429688 8.125 L 10.429688 9.53125 L 8.789063 9.53125 L 8.789063 11.40625 L 10.429688 11.40625 L 10.429688 15.625 L 4.375 15.625 Z "/>
    </g>
</svg>
