<?xml version="1.0" encoding="UTF-8"?>
<svg xmlns="http://www.w3.org/2000/svg" width="20pt" height="20pt"
     viewBox="0 0 20 20" version="1.1">
    <g id="surface1">
        <path style=" stroke:none;fill-rule:nonzero;fill:#FEFEFE;fill-opacity:1;"
              d="M 8.984375 2.5 L 6.484375 7.5 L 2.5 7.5 L 2.5 17.5 L 14.277344 17.5 C 15.160156 17.5 15.929688 16.878906 16.113281 16.015625 L 17.460938 9.765625 C 17.707031 8.609375 16.804688 7.5 15.625 7.5 L 10.761719 7.5 C 10.808594 7.109375 10.816406 6.714844 11.113281 5.820313 C 11.304688 5.242188 11.25 4.710938 11.25 4.375 C 11.25 3.910156 11.0625 3.480469 10.742188 3.125 C 10.421875 2.769531 9.941406 2.5 9.375 2.5 Z M 9.6875 3.90625 C 9.726563 3.9375 9.789063 3.925781 9.824219 3.964844 C 9.941406 4.09375 10 4.273438 10 4.375 C 10 4.78125 10.011719 5.160156 9.921875 5.429688 C 9.457031 6.84375 9.375 8.085938 9.375 8.085938 L 9.335938 8.75 L 15.625 8.75 C 16.039063 8.75 16.316406 9.109375 16.230469 9.511719 L 14.902344 15.761719 C 14.839844 16.054688 14.574219 16.25 14.277344 16.25 L 7.5 16.25 L 7.5 8.28125 Z M 3.75 8.75 L 6.25 8.75 L 6.25 16.25 L 3.75 16.25 Z M 5 14.375 C 4.65625 14.375 4.375 14.65625 4.375 15 C 4.375 15.34375 4.65625 15.625 5 15.625 C 5.34375 15.625 5.625 15.34375 5.625 15 C 5.625 14.65625 5.34375 14.375 5 14.375 Z "/>
    </g>
</svg>
