<?xml version="1.0" encoding="UTF-8"?>
<svg xmlns="http://www.w3.org/2000/svg" width="24pt" height="24pt"
     viewBox="0 0 24 24" version="1.1">
    <g id="surface1">
        <path style=" stroke:none;fill-rule:nonzero;fill:#FEFEFE;fill-opacity:1;"
              d="M 3 3 L 3 9.75 L 4.5 9.75 L 4.5 5.578125 L 8.460938 9.539063 L 9.539063 8.460938 L 5.578125 4.5 L 9.75 4.5 L 9.75 3 Z M 14.25 3 L 14.25 4.5 L 18.421875 4.5 L 14.460938 8.460938 L 15.539063 9.539063 L 19.5 5.578125 L 19.5 9.75 L 21 9.75 L 21 3 Z M 3 14.25 L 3 21 L 9.75 21 L 9.75 19.5 L 5.578125 19.5 L 9.539063 15.539063 L 8.460938 14.460938 L 4.5 18.421875 L 4.5 14.25 Z M 19.5 14.25 L 19.5 18.421875 L 15.539063 14.460938 L 14.460938 15.539063 L 18.421875 19.5 L 14.25 19.5 L 14.25 21 L 21 21 L 21 14.25 Z "/>
    </g>
</svg>
