<?xml version="1.0" encoding="UTF-8"?>
<svg xmlns="http://www.w3.org/2000/svg" width="24pt" height="24pt"
     viewBox="0 0 24 24" version="1.1">
    <g id="surface1">
        <path style=" stroke:none;fill-rule:nonzero;fill:#FEFEFE;fill-opacity:1;"
              d="M 22 6.898438 L 22 13.199219 C 22 13.199219 20.699219 13.5 20.398438 13.5 C 20.101563 13.5 19.300781 13.800781 18.699219 13.199219 C 17.800781 12.300781 14.398438 8.800781 14.398438 8.800781 C 14.398438 8.800781 13.898438 8.199219 13 8.699219 L 11.5 9.601563 C 11 9.898438 10.199219 9.699219 9.898438 9.199219 C 9.5 8.601563 9.699219 7.800781 10.300781 7.5 C 11.5 6.800781 13.398438 5.699219 14.101563 5.300781 C 14.699219 4.898438 15.199219 4.898438 16.101563 5.699219 C 17.199219 6.601563 18.101563 7.5 18.101563 7.5 C 18.101563 7.5 18.5 7.699219 18.898438 7.699219 C 19.601563 7.5 22 6.898438 22 6.898438 Z M 9.898438 17.800781 C 9.601563 17.5 6.199219 13.800781 5.898438 13.5 C 5.5 13 4.800781 13.101563 4.199219 13.5 C 3.601563 14 3.398438 14.898438 3.800781 15.398438 C 4.199219 15.898438 7.300781 19.199219 7.800781 19.699219 C 8.199219 20.199219 9.300781 20 9.800781 19.5 C 10.300781 19 10.398438 18.199219 9.898438 17.800781 Z M 17.601563 15.699219 C 18.101563 15.199219 18 14.300781 17.5 13.800781 C 14.800781 11 15.800781 12.101563 14 10.199219 C 14 10.199219 13.398438 9.5 12.699219 9.898438 C 12.5 10 12.199219 10.199219 11.800781 10.398438 C 10.898438 11 9.898438 10.898438 9 9.5 C 8 8.300781 8.5 7.300781 9.398438 6.699219 L 11.101563 5.601563 C 11.101563 5.601563 10.699219 5 9.5 5 C 8.300781 5 5.800781 6.800781 5.800781 6.800781 C 5.800781 6.800781 5 7.300781 4 6.898438 L 2 6.199219 L 2 13.398438 C 2 13.398438 2.601563 13.601563 3.101563 13.800781 C 3.199219 13.5 3.398438 13.101563 3.699219 12.898438 C 4.5 12.101563 6 12 6.699219 12.898438 C 7.199219 13.398438 10.398438 16.898438 10.699219 17.199219 C 11.199219 17.699219 11.300781 18.398438 11.199219 19 C 11.398438 19.199219 15.699219 17.800781 17.601563 15.699219 Z "/>
    </g>
</svg>
