<?xml version="1.0" encoding="UTF-8"?>
<svg xmlns="http://www.w3.org/2000/svg" width="30pt" height="30pt"
     viewBox="0 0 30 30" version="1.1">
    <g id="surface1">
        <path style=" stroke:none;fill-rule:nonzero;fill:#696969;fill-opacity:1;"
              d="M 9.375 4.472656 C 7.382813 4.472656 5.570313 5.160156 4.289063 6.417969 C 3.011719 7.675781 2.308594 9.472656 2.308594 11.539063 C 2.308594 15.03125 4.449219 17.636719 6.886719 19.832031 C 9.324219 22.027344 12.167969 23.96875 14.097656 26.25 C 14.308594 26.515625 14.625 26.671875 14.964844 26.683594 L 15.035156 26.683594 C 15.375 26.671875 15.691406 26.515625 15.902344 26.25 C 17.832031 23.96875 20.675781 22.027344 23.113281 19.832031 C 25.550781 17.636719 27.691406 15.03125 27.691406 11.539063 C 27.691406 9.472656 26.953125 7.675781 25.671875 6.417969 C 24.394531 5.160156 22.617188 4.472656 20.625 4.472656 C 18.652344 4.472656 17.03125 5.546875 15.902344 6.527344 C 15.347656 7.003906 15.320313 7.136719 15 7.5 C 14.683594 7.136719 14.652344 7.003906 14.097656 6.527344 C 12.972656 5.546875 11.347656 4.472656 9.375 4.472656 Z M 9.375 6.777344 C 10.460938 6.777344 11.671875 7.503906 12.585938 8.292969 C 13.496094 9.082031 14.0625 9.84375 14.0625 9.84375 C 14.277344 10.144531 14.628906 10.324219 15 10.324219 C 15.371094 10.324219 15.722656 10.144531 15.9375 9.84375 C 15.9375 9.84375 16.5 9.082031 17.414063 8.292969 C 18.332031 7.503906 19.535156 6.777344 20.625 6.777344 C 22.109375 6.777344 23.273438 7.285156 24.085938 8.078125 C 24.898438 8.871094 25.382813 9.992188 25.382813 11.539063 C 25.382813 14.09375 23.839844 16.050781 21.5625 18.101563 C 19.546875 19.917969 17.085938 21.777344 15 23.976563 C 12.910156 21.769531 10.457031 19.917969 8.4375 18.101563 C 6.160156 16.050781 4.617188 14.09375 4.617188 11.539063 C 4.617188 9.992188 5.101563 8.871094 5.914063 8.078125 C 6.726563 7.285156 7.886719 6.777344 9.375 6.777344 Z "/>
    </g>
</svg>
