<?xml version="1.0" encoding="UTF-8"?>
<svg xmlns="http://www.w3.org/2000/svg" width="17pt" height="17pt"
     viewBox="0 0 17 17" version="1.1">
    <g id="surface1">
        <path style=" stroke:none;fill-rule:nonzero;fill:#FEFEFE;fill-opacity:1;"
              d="M 14.621094 15.640625 L 2.378906 15.640625 C 2.285156 15.640625 2.195313 15.601563 2.132813 15.535156 C 2.070313 15.464844 2.035156 15.375 2.039063 15.28125 C 2.152344 13.253906 3.703125 12.617188 4.949219 12.105469 C 5.695313 11.796875 6.601563 11.363281 6.796875 10.894531 C 6.796875 10.890625 6.800781 10.886719 6.800781 10.878906 C 5.535156 10.738281 4.078125 10.636719 4.078125 9.859375 C 4.078125 9.765625 4.121094 9.671875 4.191406 9.609375 C 4.457031 9.367188 4.589844 8.363281 4.621094 7.394531 C 4.699219 4.992188 4.8125 1.359375 8.535156 1.359375 C 9.277344 1.359375 9.78125 1.695313 9.992188 1.871094 C 10.640625 1.898438 11.171875 2.117188 11.574219 2.523438 C 12.589844 3.546875 12.570313 5.5 12.554688 7.222656 C 12.546875 8.210938 12.539063 9.328125 12.808594 9.574219 C 12.878906 9.636719 12.921875 9.730469 12.921875 9.824219 C 12.921875 10.632813 10.972656 10.777344 10.199219 10.878906 C 10.199219 10.890625 10.203125 10.902344 10.203125 10.914063 C 10.40625 11.371094 11.3125 11.800781 12.050781 12.105469 C 13.296875 12.617188 14.847656 13.253906 14.960938 15.28125 C 14.964844 15.375 14.933594 15.464844 14.867188 15.535156 C 14.804688 15.601563 14.714844 15.640625 14.621094 15.640625 Z M 10.203125 10.984375 L 10.207031 10.984375 Z M 9.792969 10.742188 Z M 9.792969 10.742188 Z "/>
    </g>
</svg>
