<?xml version="1.0" encoding="UTF-8"?>
<svg xmlns="http://www.w3.org/2000/svg" width="17pt" height="17pt"
     viewBox="0 0 17 17" version="1.1">
    <g id="surface1">
        <path style=" stroke:none;fill-rule:nonzero;fill:#EDE7F6;fill-opacity:1;"
              d="M 15.582031 8.5 C 15.582031 12.410156 12.410156 15.582031 8.5 15.582031 C 4.589844 15.582031 1.417969 12.410156 1.417969 8.5 C 1.417969 4.589844 4.589844 1.417969 8.5 1.417969 C 12.410156 1.417969 15.582031 4.589844 15.582031 8.5 Z "/>
        <path style=" stroke:none;fill-rule:nonzero;fill:#3E2723;fill-opacity:1;"
              d="M 6.375 6.480469 L 10.625 6.480469 L 10.625 11.261719 L 6.375 11.261719 Z "/>
        <path style=" stroke:none;fill-rule:nonzero;fill:#FF1744;fill-opacity:1;"
              d="M 8.5 15.582031 C 10.09375 15.582031 11.546875 15.050781 12.714844 14.167969 C 12.503906 11.546875 9.917969 10.980469 9.917969 10.980469 L 7.082031 10.980469 C 7.082031 10.980469 4.496094 11.546875 4.285156 14.167969 C 5.453125 15.050781 6.90625 15.582031 8.5 15.582031 Z "/>
        <path style=" stroke:none;fill-rule:nonzero;fill:#FF9800;fill-opacity:1;"
              d="M 8.5 12.324219 C 8.003906 12.324219 7.261719 10.980469 7.261719 10.980469 L 7.261719 9.207031 L 9.738281 9.207031 L 9.738281 10.980469 C 9.738281 10.980469 8.996094 12.324219 8.5 12.324219 "/>
        <path style=" stroke:none;fill-rule:nonzero;fill:#FFB74D;fill-opacity:1;"
              d="M 10.980469 8.144531 C 10.980469 9.457031 9.808594 10.625 8.5 10.625 C 7.191406 10.625 6.019531 9.457031 6.019531 8.144531 L 6.019531 6.019531 C 6.019531 4.710938 10.980469 4.003906 10.980469 6.019531 Z M 8.5 12.75 C 9.527344 12.75 9.738281 10.980469 9.738281 10.980469 C 9.738281 10.980469 9.066406 12.042969 8.5 12.042969 C 7.933594 12.042969 7.261719 10.980469 7.261719 10.980469 C 7.261719 10.980469 7.472656 12.75 8.5 12.75 "/>
        <path style=" stroke:none;fill-rule:nonzero;fill:#784719;fill-opacity:1;"
              d="M 9.207031 7.792969 C 9.207031 7.578125 9.351563 7.4375 9.5625 7.4375 C 9.773438 7.4375 9.917969 7.578125 9.917969 7.792969 C 9.917969 8.003906 9.773438 8.144531 9.5625 8.144531 C 9.351563 8.144531 9.207031 8.003906 9.207031 7.792969 M 7.082031 7.792969 C 7.082031 8.003906 7.226563 8.144531 7.4375 8.144531 C 7.648438 8.144531 7.792969 8.003906 7.792969 7.792969 C 7.792969 7.578125 7.648438 7.4375 7.4375 7.4375 C 7.226563 7.4375 7.082031 7.578125 7.082031 7.792969 "/>
        <path style=" stroke:none;fill-rule:nonzero;fill:#795548;fill-opacity:1;"
              d="M 8.5 3.894531 C 6.871094 3.894531 4.605469 4.640625 4.605469 9.917969 L 6.375 11.261719 L 6.375 7.4375 L 9.5625 5.667969 L 10.625 7.082031 L 10.625 11.332031 L 12.394531 9.5625 C 12.394531 8.5 12.289063 4.425781 9.5625 4.425781 L 9.207031 3.894531 Z "/>
    </g>
</svg>
