<?xml version="1.0" encoding="UTF-8"?>
<svg xmlns="http://www.w3.org/2000/svg" width="17pt" height="17pt"
     viewBox="0 0 17 17" version="1.1">
    <g id="surface1">
        <path style=" stroke:none;fill-rule:nonzero;fill:#EDE7F6;fill-opacity:1;"
              d="M 15.582031 8.5 C 15.582031 12.410156 12.410156 15.582031 8.5 15.582031 C 4.589844 15.582031 1.417969 12.410156 1.417969 8.5 C 1.417969 4.589844 4.589844 1.417969 8.5 1.417969 C 12.410156 1.417969 15.582031 4.589844 15.582031 8.5 Z "/>
        <path style=" stroke:none;fill-rule:nonzero;fill:#673AB7;fill-opacity:1;"
              d="M 8.5 15.582031 C 10.09375 15.582031 11.546875 15.050781 12.714844 14.167969 C 12.503906 11.476563 9.808594 10.980469 9.808594 10.980469 L 8.5 11.261719 L 7.191406 10.980469 C 7.191406 10.980469 4.496094 11.476563 4.285156 14.167969 C 5.453125 15.050781 6.90625 15.582031 8.5 15.582031 Z "/>
        <path style=" stroke:none;fill-rule:nonzero;fill:#311B92;fill-opacity:1;"
              d="M 8.5 13.105469 C 9.597656 13.105469 10.484375 12.289063 10.589844 11.226563 C 10.269531 11.085938 10.023438 11.015625 9.882813 10.980469 C 9.882813 11.757813 9.242188 12.359375 8.464844 12.359375 C 7.683594 12.359375 7.046875 11.722656 7.046875 10.980469 C 6.90625 11.015625 6.660156 11.085938 6.339844 11.226563 C 6.515625 12.289063 7.402344 13.105469 8.5 13.105469 Z "/>
        <path style=" stroke:none;fill-rule:nonzero;fill:#FFA726;fill-opacity:1;"
              d="M 11.332031 7.96875 C 11.332031 8.253906 11.085938 8.5 10.800781 8.5 C 10.519531 8.5 10.269531 8.253906 10.269531 7.96875 C 10.269531 7.683594 10.519531 7.4375 10.800781 7.4375 C 11.085938 7.4375 11.332031 7.683594 11.332031 7.96875 M 6.730469 7.96875 C 6.730469 7.683594 6.480469 7.4375 6.199219 7.4375 C 5.914063 7.4375 5.667969 7.683594 5.667969 7.96875 C 5.667969 8.253906 5.914063 8.5 6.199219 8.5 C 6.480469 8.5 6.730469 8.253906 6.730469 7.96875 "/>
        <path style=" stroke:none;fill-rule:nonzero;fill:#FF9800;fill-opacity:1;"
              d="M 8.5 12.394531 C 7.082031 12.394531 7.082031 10.980469 7.082031 10.980469 L 7.082031 9.5625 L 9.917969 9.5625 L 9.917969 10.980469 C 9.917969 10.980469 9.917969 12.394531 8.5 12.394531 Z "/>
        <path style=" stroke:none;fill-rule:nonzero;fill:#FFB74D;fill-opacity:1;"
              d="M 10.980469 6.621094 C 10.980469 4.535156 6.019531 5.277344 6.019531 6.621094 L 6.019531 8.179688 C 6.019531 9.527344 7.117188 10.625 8.5 10.625 C 9.882813 10.625 10.980469 9.527344 10.980469 8.179688 Z "/>
        <path style=" stroke:none;fill-rule:nonzero;fill:#424242;fill-opacity:1;"
              d="M 8.5 3.894531 C 6.765625 3.894531 5.667969 5.417969 5.667969 6.800781 L 5.667969 7.4375 L 6.375 8.144531 L 6.375 6.730469 L 9.632813 5.667969 L 10.625 6.730469 L 10.625 8.144531 L 11.332031 7.4375 L 11.332031 7.152344 C 11.332031 6.019531 11.050781 4.746094 9.632813 4.460938 L 9.351563 3.894531 Z "/>
        <path style=" stroke:none;fill-rule:nonzero;fill:#784719;fill-opacity:1;"
              d="M 9.207031 7.792969 C 9.207031 7.578125 9.351563 7.4375 9.5625 7.4375 C 9.773438 7.4375 9.917969 7.578125 9.917969 7.792969 C 9.917969 8.003906 9.773438 8.144531 9.5625 8.144531 C 9.351563 8.144531 9.207031 8.003906 9.207031 7.792969 M 7.082031 7.792969 C 7.082031 8.003906 7.226563 8.144531 7.4375 8.144531 C 7.648438 8.144531 7.792969 8.003906 7.792969 7.792969 C 7.792969 7.578125 7.648438 7.4375 7.4375 7.4375 C 7.226563 7.4375 7.082031 7.578125 7.082031 7.792969 "/>
    </g>
</svg>
