<?xml version="1.0" encoding="utf-8"?>
<!-- Generator: Adobe Illustrator 18.0.0, SVG Export Plug-In . SVG Version: 6.00 Build 0)  -->
<!DOCTYPE svg PUBLIC "-//W3C//DTD SVG 1.1//EN" "http://www.w3.org/Graphics/SVG/1.1/DTD/svg11.dtd">
<svg version="1.1" id="Layer_1" xmlns="http://www.w3.org/2000/svg"  x="0px" y="0px"
	 viewBox="0 0 17 17" enable-background="new 0 0 17 17" xml:space="preserve">
<g id="surface1">
	<path fill="#EDE7F6" d="M17,8.5c0,4.7-3.8,8.5-8.5,8.5S0,13.2,0,8.5S3.8,0,8.5,0S17,3.8,17,8.5z"/>
	<path fill="#3E2723" d="M5.9,6.1h5.1v5.7H5.9V6.1z"/>
	<path fill="#FF1744" d="M8.5,17c1.9,0,3.7-0.6,5.1-1.7c-0.3-3.1-3.4-3.8-3.4-3.8H6.8c0,0-3.1,0.7-3.4,3.8C4.8,16.4,6.6,17,8.5,17z"
		/>
	<path fill="#FF9800" d="M8.5,13.1c-0.6,0-1.5-1.6-1.5-1.6V9.3h3v2.1C10,11.5,9.1,13.1,8.5,13.1"/>
	<path fill="#FFB74D" d="M11.5,8.1c0,1.6-1.4,3-3,3s-3-1.4-3-3V5.5c0-1.6,6-2.4,6,0V8.1z M8.5,13.6c1.2,0,1.5-2.1,1.5-2.1
		s-0.8,1.3-1.5,1.3S7,11.5,7,11.5S7.3,13.6,8.5,13.6"/>
	<path fill="#784719" d="M9.3,7.7c0-0.3,0.2-0.4,0.4-0.4c0.3,0,0.4,0.2,0.4,0.4c0,0.3-0.2,0.4-0.4,0.4C9.5,8.1,9.3,7.9,9.3,7.7
		 M6.8,7.7c0,0.3,0.2,0.4,0.4,0.4c0.3,0,0.4-0.2,0.4-0.4c0-0.3-0.2-0.4-0.4-0.4C7,7.2,6.8,7.4,6.8,7.7"/>
	<path fill="#795548" d="M8.5,3c-2,0-4.7,0.9-4.7,7.2l2.1,1.6V7.2l3.8-2.1l1.3,1.7v5.1l2.1-2.1c0-1.3-0.1-6.2-3.4-6.2L9.3,3H8.5z"/>
</g>
</svg>
