<?xml version="1.0" encoding="utf-8"?>
<!-- Generator: Adobe Illustrator 18.0.0, SVG Export Plug-In . SVG Version: 6.00 Build 0)  -->
<!DOCTYPE svg PUBLIC "-//W3C//DTD SVG 1.1//EN" "http://www.w3.org/Graphics/SVG/1.1/DTD/svg11.dtd">
<svg version="1.1" id="Layer_1" xmlns="http://www.w3.org/2000/svg"  x="0px" y="0px"
	 viewBox="-0.2 -0.1 17 17" enable-background="new -0.2 -0.1 17 17" xml:space="preserve">
<g id="surface1">
	<path fill="#EDE7F6" d="M16.8,8.3c0,4.7-3.8,8.5-8.5,8.5S-0.2,13-0.2,8.3s3.8-8.5,8.5-8.5S16.8,3.7,16.8,8.3z"/>
	<path fill="#673AB7" d="M8.3,16.8c1.9,0,3.7-0.6,5.1-1.7c-0.3-3.2-3.5-3.8-3.5-3.8l-1.6,0.3l-1.6-0.3c0,0-3.2,0.6-3.5,3.8
		C4.7,16.2,6.4,16.8,8.3,16.8z"/>
	<path fill="#311B92" d="M8.3,13.9c1.3,0,2.4-1,2.5-2.3c-0.4-0.2-0.7-0.3-0.8-0.3c0,0.9-0.8,1.7-1.7,1.7c-0.9,0-1.7-0.8-1.7-1.7
		c-0.2,0-0.5,0.1-0.8,0.3C6,12.9,7,13.9,8.3,13.9z"/>
	<path fill="#FFA726" d="M11.7,7.7c0,0.3-0.3,0.6-0.6,0.6c-0.3,0-0.6-0.3-0.6-0.6c0-0.3,0.3-0.6,0.6-0.6C11.4,7.1,11.7,7.4,11.7,7.7
		 M6.2,7.7c0-0.3-0.3-0.6-0.6-0.6c-0.3,0-0.6,0.3-0.6,0.6c0,0.3,0.3,0.6,0.6,0.6C5.9,8.3,6.2,8.1,6.2,7.7"/>
	<path fill="#FF9800" d="M8.3,13c-1.7,0-1.7-1.7-1.7-1.7V9.6H10v1.7C10,11.3,10,13,8.3,13z"/>
	<path fill="#FFB74D" d="M11.3,6.1c0-2.5-6-1.6-6,0V8c0,1.6,1.3,2.9,3,2.9s3-1.3,3-2.9V6.1z"/>
	<path fill="#424242" d="M8.3,2.8c-2.1,0-3.4,1.8-3.4,3.5v0.8l0.8,0.8V6.2l3.9-1.3l1.2,1.3v1.7l0.8-0.8V6.7c0-1.4-0.3-2.9-2-3.2
		L9.4,2.8H8.3z"/>
	<path fill="#784719" d="M9.2,7.5c0-0.3,0.2-0.4,0.4-0.4c0.3,0,0.4,0.2,0.4,0.4c0,0.3-0.2,0.4-0.4,0.4C9.4,7.9,9.2,7.8,9.2,7.5
		 M6.6,7.5c0,0.3,0.2,0.4,0.4,0.4c0.3,0,0.4-0.2,0.4-0.4c0-0.3-0.2-0.4-0.4-0.4C6.8,7.1,6.6,7.2,6.6,7.5"/>
</g>
</svg>
