<?xml version="1.0" encoding="UTF-8"?>
<svg xmlns="http://www.w3.org/2000/svg" width="17pt" height="17pt"
     viewBox="0 0 17 17" version="1.1">
    <g id="surface1">
        <path style=" stroke:none;fill-rule:nonzero;fill:#FEFEFE;fill-opacity:1;"
              d="M 8.5 2.832031 C 6.777344 2.832031 5.542969 4.238281 5.667969 5.953125 C 5.695313 6.339844 5.859375 7.097656 5.886719 7.480469 C 5.886719 7.488281 5.886719 7.5 5.886719 7.503906 C 6.109375 8.578125 7.332031 9.207031 8.5 9.207031 C 9.667969 9.207031 10.675781 8.511719 11.113281 7.503906 C 11.113281 7.5 11.113281 7.488281 11.113281 7.480469 C 11.21875 7.109375 11.304688 6.339844 11.332031 5.953125 C 11.417969 4.816406 10.902344 3.6875 9.496094 3.410156 L 9.207031 2.832031 Z M 8.5 10.625 C 4.195313 10.625 2.832031 13.457031 2.832031 13.457031 L 2.832031 14.875 L 14.167969 14.875 L 14.167969 13.457031 C 14.167969 13.457031 12.804688 10.625 8.5 10.625 Z "/>
    </g>
</svg>
