<?xml version="1.0" encoding="UTF-8"?>
<svg xmlns="http://www.w3.org/2000/svg" width="24pt" height="24pt"
     viewBox="0 0 24 24" version="1.1">
    <g id="surface1">
        <path style=" stroke:none;fill-rule:nonzero;fill:#FEFEFE;fill-opacity:1;"
              d="M 12 2.25 C 8.28125 2.25 5.25 5.28125 5.25 9 C 5.25 10.054688 5.679688 11.265625 6.257813 12.585938 C 6.839844 13.90625 7.585938 15.3125 8.34375 16.617188 C 9.863281 19.234375 11.390625 21.421875 11.390625 21.421875 L 12 22.3125 L 12.609375 21.421875 C 12.609375 21.421875 14.140625 19.234375 15.65625 16.617188 C 16.414063 15.3125 17.164063 13.90625 17.742188 12.585938 C 18.324219 11.265625 18.75 10.054688 18.75 9 C 18.75 5.28125 15.71875 2.25 12 2.25 Z M 12 3.75 C 14.910156 3.75 17.25 6.089844 17.25 9 C 17.25 9.601563 16.929688 10.738281 16.382813 11.976563 C 15.839844 13.214844 15.085938 14.589844 14.34375 15.867188 C 13.167969 17.902344 12.433594 18.976563 12 19.617188 C 11.566406 18.976563 10.835938 17.902344 9.65625 15.867188 C 8.914063 14.589844 8.164063 13.214844 7.617188 11.976563 C 7.074219 10.738281 6.75 9.601563 6.75 9 C 6.75 6.089844 9.089844 3.75 12 3.75 Z M 12 7.5 C 11.171875 7.5 10.5 8.171875 10.5 9 C 10.5 9.828125 11.171875 10.5 12 10.5 C 12.828125 10.5 13.5 9.828125 13.5 9 C 13.5 8.171875 12.828125 7.5 12 7.5 Z "/>
    </g>
</svg>
