<?xml version="1.0" encoding="UTF-8"?>
<svg xmlns="http://www.w3.org/2000/svg" width="24pt" height="24pt"
     viewBox="0 0 24 24" version="1.1">
    <g id="surface1">
        <path style=" stroke:none;fill-rule:nonzero;fill:#333333;fill-opacity:1;"
              d="M 12 4.5 C 11.171875 4.5 10.5 5.171875 10.5 6 C 10.5 6.828125 11.171875 7.5 12 7.5 C 12.828125 7.5 13.5 6.828125 13.5 6 C 13.5 5.171875 12.828125 4.5 12 4.5 Z M 12 10.5 C 11.171875 10.5 10.5 11.171875 10.5 12 C 10.5 12.828125 11.171875 13.5 12 13.5 C 12.828125 13.5 13.5 12.828125 13.5 12 C 13.5 11.171875 12.828125 10.5 12 10.5 Z M 12 16.5 C 11.171875 16.5 10.5 17.171875 10.5 18 C 10.5 18.828125 11.171875 19.5 12 19.5 C 12.828125 19.5 13.5 18.828125 13.5 18 C 13.5 17.171875 12.828125 16.5 12 16.5 Z "/>
    </g>
</svg>
