<?xml version="1.0" encoding="UTF-8" ?>
<!DOCTYPE svg PUBLIC "-//W3C//DTD SVG 1.1//EN" "http://www.w3.org/Graphics/SVG/1.1/DTD/svg11.dtd">
<svg width="200pt" height="200pt" viewBox="0 0 200 200" version="1.1" xmlns="http://www.w3.org/2000/svg">
    <g id="#ffffff">
        <path fill="#FFFFFF" opacity="1.00"
              d=" M 20.26 10.28 C 21.48 10.14 22.71 10.07 23.94 10.07 C 75.64 10.13 127.35 10.04 179.05 10.12 C 185.32 9.99 190.78 15.76 190.44 22.01 C 190.47 73.99 190.46 125.98 190.45 177.96 C 190.60 181.99 188.64 186.04 185.20 188.21 C 182.84 189.89 179.87 190.12 177.07 190.11 C 125.37 190.04 73.67 190.15 21.97 190.06 C 15.59 190.27 10.07 184.39 10.45 178.07 C 10.47 126.03 10.42 74.00 10.47 21.97 C 10.24 16.34 14.63 10.96 20.26 10.28 M 26.42 21.64 C 22.64 22.75 21.26 28.09 24.10 30.86 C 26.79 33.99 32.48 32.76 33.63 28.80 C 35.29 24.58 30.61 19.96 26.42 21.64 M 40.24 24.18 C 37.44 25.69 38.75 30.54 42.01 30.21 C 86.99 30.34 131.98 30.29 176.97 30.24 C 180.55 30.91 182.17 25.51 178.90 24.02 C 175.64 23.41 172.29 23.77 168.99 23.70 C 128.32 23.69 87.66 23.74 47.00 23.68 C 44.76 23.78 42.39 23.38 40.24 24.18 M 20.45 42.25 C 20.45 87.19 20.47 132.13 20.44 177.06 C 20.57 178.07 20.26 180.31 21.97 179.99 C 28.50 180.27 35.04 180.01 41.57 180.07 C 41.80 175.92 40.40 170.27 44.66 167.69 C 49.96 164.87 56.24 166.26 61.99 165.94 C 68.15 166.30 74.72 164.89 80.56 167.36 C 85.40 169.66 84.07 175.76 84.25 180.09 C 116.24 180.02 148.24 180.23 180.23 179.98 C 180.46 177.65 180.43 175.31 180.46 172.98 C 180.43 129.40 180.47 85.82 180.44 42.25 C 127.11 42.26 73.78 42.24 20.45 42.25 Z"/>
        <path fill="#FFFFFF" opacity="1.00"
              d=" M 59.28 56.45 C 65.32 53.34 73.00 59.31 71.57 65.90 C 70.78 72.22 62.41 75.51 57.53 71.39 C 52.31 67.73 53.38 58.81 59.28 56.45 Z"/>
        <path fill="#FFFFFF" opacity="1.00"
              d=" M 99.76 72.82 C 100.91 71.73 102.36 71.08 103.97 71.28 C 121.65 71.30 139.34 71.31 157.03 71.27 C 158.57 71.39 160.99 70.90 161.36 73.02 C 161.55 75.51 158.70 75.31 157.02 75.33 C 138.33 75.19 119.63 75.46 100.94 75.18 C 100.64 74.59 100.05 73.41 99.76 72.82 Z"/>
        <path fill="#FFFFFF" opacity="1.00"
              d=" M 45.41 77.36 C 51.62 74.93 58.51 76.41 65.02 76.01 C 70.57 76.31 76.87 74.90 81.76 78.21 C 85.77 81.75 83.77 87.79 84.22 92.45 C 70.01 92.46 55.80 92.46 41.59 92.45 C 42.00 87.45 39.76 80.12 45.41 77.36 Z"/>
        <path fill="#FFFFFF" opacity="1.00"
              d=" M 101.32 83.51 C 120.51 83.11 139.73 83.38 158.93 83.37 C 161.89 82.73 162.12 87.77 159.04 87.27 C 140.34 87.38 121.63 87.34 102.92 87.29 C 100.54 88.09 98.97 84.54 101.32 83.51 Z"/>
        <path fill="#FFFFFF" opacity="1.00"
              d=" M 59.28 101.39 C 65.30 98.30 72.98 104.24 71.57 110.83 C 70.80 117.15 62.45 120.49 57.57 116.38 C 52.31 112.73 53.36 103.77 59.28 101.39 Z"/>
        <path fill="#FFFFFF" opacity="1.00"
              d=" M 101.29 116.45 C 120.16 116.01 139.08 116.38 157.97 116.26 C 159.54 115.93 162.16 116.96 161.13 118.93 C 160.71 120.78 158.29 120.04 156.95 120.30 C 138.94 120.21 120.93 120.33 102.93 120.23 C 100.57 121.03 98.99 117.55 101.29 116.45 Z"/>
        <path fill="#FFFFFF" opacity="1.00"
              d=" M 45.42 122.31 C 51.62 119.89 58.49 121.37 64.98 120.97 C 70.55 121.29 76.90 119.84 81.79 123.20 C 85.76 126.75 83.78 132.74 84.22 137.40 C 70.01 137.41 55.80 137.41 41.59 137.40 C 42.00 132.39 39.76 125.07 45.42 122.31 Z"/>
        <path fill="#FFFFFF" opacity="1.00"
              d=" M 101.34 128.46 C 120.51 128.06 139.72 128.34 158.89 128.32 C 160.78 127.93 162.21 130.34 160.76 131.76 C 159.31 132.52 157.60 132.21 156.04 132.32 C 137.99 132.16 119.94 132.45 101.91 132.18 C 99.97 132.34 99.47 129.05 101.34 128.46 Z"/>
        <path fill="#FFFFFF" opacity="1.00"
              d=" M 59.30 146.35 C 65.02 143.46 72.42 148.65 71.66 155.00 C 71.49 161.67 62.79 165.65 57.65 161.39 C 52.31 157.78 53.32 148.72 59.30 146.35 Z"/>
        <path fill="#FFFFFF" opacity="1.00"
              d=" M 101.29 161.40 C 120.20 160.98 139.15 161.33 158.07 161.22 C 159.65 160.85 162.28 162.08 161.08 163.96 C 160.70 165.72 158.34 164.97 157.06 165.25 C 139.01 165.17 120.96 165.27 102.91 165.20 C 100.56 165.91 98.97 162.48 101.29 161.40 Z"/>
        <path fill="#FFFFFF" opacity="1.00"
              d=" M 101.27 173.44 C 118.82 172.96 136.42 173.42 153.99 173.22 C 156.15 173.25 158.36 173.07 160.49 173.55 C 162.21 174.72 161.10 177.57 159.01 177.19 C 140.34 177.32 121.66 177.25 102.98 177.22 C 100.59 178.03 98.97 174.54 101.27 173.44 Z"/>
    </g>
</svg>
