<?xml version="1.0" encoding="UTF-8"?>
<svg xmlns="http://www.w3.org/2000/svg" width="32pt" height="32pt"
     viewBox="0 0 32 32" version="1.1">
    <g id="surface1">
        <path style=" stroke:none;fill-rule:nonzero;fill:#FEFEFE;fill-opacity:1;"
              d="M 19 3 C 13.488281 3 9 7.488281 9 13 C 9 15.398438 9.851563 17.597656 11.265625 19.324219 L 3.292969 27.292969 L 4.707031 28.707031 L 12.675781 20.734375 C 14.402344 22.148438 16.601563 23 19 23 C 24.511719 23 29 18.511719 29 13 C 29 7.488281 24.511719 3 19 3 Z M 19 5 C 23.429688 5 27 8.570313 27 13 C 27 17.429688 23.429688 21 19 21 C 14.570313 21 11 17.429688 11 13 C 11 8.570313 14.570313 5 19 5 Z M 16 10 C 15.449219 10 15 10.449219 15 11 C 15 11.550781 15.449219 12 16 12 C 16.550781 12 17 11.550781 17 11 C 17 10.449219 16.550781 10 16 10 Z M 22 10 C 21.449219 10 21 10.449219 21 11 C 21 11.550781 21.449219 12 22 12 C 22.550781 12 23 11.550781 23 11 C 23 10.449219 22.550781 10 22 10 Z M 19 14 C 16.792969 14 15.34375 15.246094 15.34375 15.246094 C 15.0625 15.472656 14.929688 15.839844 14.996094 16.199219 C 15.058594 16.554688 15.316406 16.851563 15.660156 16.964844 C 16.003906 17.082031 16.386719 17 16.65625 16.753906 C 16.65625 16.753906 17.515625 16 19 16 C 20.484375 16 21.34375 16.753906 21.34375 16.753906 C 21.613281 17 21.996094 17.082031 22.339844 16.964844 C 22.683594 16.851563 22.941406 16.554688 23.003906 16.199219 C 23.070313 15.839844 22.9375 15.472656 22.65625 15.246094 C 22.65625 15.246094 21.207031 14 19 14 Z "/>
    </g>
</svg>
