<?xml version="1.0" encoding="UTF-8"?>
<svg xmlns="http://www.w3.org/2000/svg" width="52pt" height="52pt"
     viewBox="0 0 52 52" version="1.1">
    <g id="surface1">
        <path style=" stroke:none;fill-rule:nonzero;fill:#FEFEFE;fill-opacity:1;"
              d="M 26 0 C 24.40625 0 23.101563 1.046875 22.5625 2 L 20 2 C 17.8125 2 16 3.8125 16 6 L 12 6 C 8.6875 6 6 8.6875 6 12 L 6 46 C 6 49.3125 8.6875 52 12 52 L 40 52 C 43.3125 52 46 49.3125 46 46 L 46 12 C 46 8.6875 43.3125 6 40 6 L 36 6 C 36 3.8125 34.1875 2 32 2 L 29.4375 2 C 28.898438 1.046875 27.59375 0 26 0 Z M 20 6 L 32 6 L 32 10 L 20 10 Z M 12 12 L 16.5625 12 C 17.257813 13.195313 18.53125 14 20 14 L 32 14 C 33.46875 14 34.742188 13.195313 35.4375 12 L 40 12 L 40 46 L 12 46 Z M 16 20 L 16 24 L 36 24 L 36 20 Z M 16 28 L 16 32 L 30 32 L 30 28 Z M 16 36 L 16 40 L 36 40 L 36 36 Z "/>
    </g>
</svg>
