<svg viewBox="0 0 1480 657" xmlns="http://www.w3.org/2000/svg">
    <g fill="#fff">
        <path d="M413.35 0h5.11c11.29 1.77 20.81 8.97 28.37 17.18 3.77 4.29 7.5 9.77 6.37 15.79-.4 3.63-4.75 3.97-6.62 6.55-13.59 15.81-25 33.31-36.29 50.79-21 33.1-40.53 67.12-59.6 101.36-34.34 61.96-66.05 125.36-94.95 190.03-1.18 2.45-1.97 5.15-3.67 7.31-2.28 2.47-5.95 2.64-9.08 2.34-8.82-.86-16.75-5.43-23.76-10.57-7.09-5.23-13.65-11.69-17.15-19.91-3.52-8.16-2.71-17.25-3.38-25.9-.99-35.37.42-70.76 2.14-106.09 2.4-41.85 4.7-83.85 12.18-125.16-19.14 24.59-36.97 50.21-54.14 76.22-44.2 67.4-82 139.05-111.92 213.91-1.24 2.59-.99 5.92-2.97 8.11-3.31 2.04-7.48.33-10.6-1.32-9.99-6.13-18.06-16.05-20.28-27.75-2.77-12.43-.07-25.19 3.51-37.15 6.02-19.93 14.45-39.03 23.2-57.89 33.92-71.88 75.19-140.36 123.63-203.4 14.13-18 28.88-35.78 46.48-50.53 8.63-6.98 18.11-13.78 29.25-15.84 13.43-1.95 26.65 4.46 36.17 13.59 4.31 4.11 8.55 8.83 10.05 14.76 1.21 4.48-.98 8.82-1.62 13.2-2.62 15.79-4.02 31.74-5.66 47.65-4.54 47.88-8.48 95.81-11.67 143.79 18.69-42.03 38.67-83.51 60.74-123.88 15.5-28.06 31.24-56.07 49.68-82.33 6.63-9.22 13.54-18.35 21.83-26.15 4.25-3.79 8.89-7.66 14.65-8.71zM619.49 0h16.95c12.19 1.11 24.46 3.04 35.82 7.8 14.6 5.99 28.13 16.1 35.58 30.27 7.32 13.88 7.84 30.41 4.6 45.5-3.82 17.44-13.82 33.01-26.4 45.47-11.95 11.97-25.87 22.49-41.96 28.15-9.45 3.27-19.63 4.77-29.59 3.54-6.53-.89-13.08-3.74-17.27-8.97-2.25-2.77-3.07-7.24-.53-10.09 11.72-10.61 22.54-22.24 32.3-34.67 8.38-11.02 16.24-22.95 19.65-36.54 1.39-6.28 2.24-13.34-.95-19.22-2.76-5.04-8.65-7.23-14.1-7.72-12.67-.96-25.27 2.35-36.92 7.11-16.22 6.75-31.06 16.42-45.02 27-13.11 10.12-25.47 21.82-33.57 36.42-6.55 11.71-9.46 25.78-6.36 38.97 1.49 6.66 6.36 11.69 10.18 17.1 3.89 5.45 9.65 9.05 14.82 13.15 13.01 10.33 27.73 18.17 41.26 27.77 9.54 6.22 17.87 14.04 26.08 21.89 6.9 6.73 12.77 14.76 15.86 23.96 4.71 14.18 5.17 29.53 2.94 44.22-3 19.34-12.95 37.24-26.94 50.8-22.9 22.31-53.44 35.98-84.94 40.47-36.9 5.27-76.12 1.06-109.05-17.26-15.65-8.54-30.27-20.12-39.18-35.83-10.45-18.25-12.27-40.66-7.29-60.88 3.85-15.76 14.39-29.11 27.13-38.8 4.71-3.33 10.35-6.44 16.31-5.66 2.91.38 2.72 3.76 2.91 5.95 1.12 20.96 9.75 41.1 23 57.24 9.17 11.28 20.21 21.21 33.12 28.02 16.78 9.03 36.1 12.57 55.04 12.01 10.06-.31 20.27-1.68 29.59-5.67 7.03-3.04 13.46-7.81 17.73-14.23 5.38-8.25 6.61-19.51 1.66-28.25-6.08-11.14-16.25-19.27-26.32-26.66-14.14-10.25-29.9-17.92-44.45-27.53-8.53-5.62-17.25-11.21-24.19-18.81-6.83-7.41-12.71-15.73-17.48-24.62-6.74-12.95-9.07-27.84-8.09-42.33 1.21-22.36 9.81-43.84 22.53-62.1 14.7-20.99 33.55-39.04 55.02-53.01C548.99 14.67 583.67 1.8 619.49 0zM1054.39 0h7c14.04 1.83 26.5 10.82 33.96 22.65 2.18 3.92 4.13 9.63.76 13.44-17.28 18.64-32.83 38.81-47.42 59.61-34.7 49.7-63.73 103.09-90.64 157.33-13.59 27.55-26.83 55.32-37.95 83.98-4.99 13.27-9.89 26.72-12.16 40.77-.7 3.57-.23 7.32-1.33 10.8-1.92 3.28-6.37 3.07-9.64 2.65-9.67-1.64-17.55-8.19-24.39-14.82-8.72-8.43-14.56-20.11-14.69-32.37-.13-14.39 3.84-28.42 8.07-42.05 7.07-21.96 16.37-43.12 25.92-64.1-32.12 40.48-65.16 80.77-104.71 114.3-14.82 12.33-30.61 23.84-48.3 31.7-12.72 5.61-26.89 9.15-40.81 6.85-8.88-1.4-17.28-5.82-23.21-12.62-9.08-10.05-12.5-23.89-12.93-37.14-.62-19.9 4.74-39.39 11.11-58.06 7.35-21.03 16.67-41.32 26.73-61.19 17.33-33.88 36.3-66.94 57.21-98.75 19.69-29.81 40.9-58.7 64.6-85.45 9.99-10.7 20.05-21.92 33.01-29.08 7.69-4.55 17.09-2.1 24.68 1.39 10.45 5.06 20.43 12.29 26.3 22.54 1.54 2.93 3.34 7.02.85 9.94-36.42 37.93-68.27 80.03-97.24 123.86-19.33 29.49-37.93 59.52-54.12 90.86-8.5 16.98-16.9 34.33-20.96 52.99-.77 4.96-2.14 10.34-.2 15.18 1.8 3.67 6.58 3.19 9.93 2.47 10.17-2.49 18.99-8.49 27.49-14.36 16.92-12.17 32.36-26.24 47.48-40.54 51.85-49.82 99.79-103.88 141.51-162.49 7.23-9.89 13.6-20.38 20.54-30.47 10.56-15.61 21.46-31.01 33.37-45.62 7.34-8.92 14.98-17.69 23.83-25.15 4.82-3.97 10.11-7.78 16.35-9.05zM1140.56 117.52c12.24-4.32 25.46-6.26 38.39-4.57 14.17 1.77 27.67 8.27 38.02 18.09 8.63 8.32 13.42 20.07 14.18 31.94 1.48 17.68-4.4 35.35-14.28 49.87-9.67 14.37-22.47 26.38-36.21 36.8-16.97 12.77-36.6 22.51-57.67 26.02-16.59 2.72-34.19 2.26-49.85-4.4-3.56 12.98-6.42 26.78-3.6 40.19 1.62 7.99 7.05 15.25 14.78 18.2 10.25 3.98 21.72 3.14 32.26.82 20.85-4.94 37.99-19.41 51.05-35.85 1.87-2.23 3.29-5.36 6.39-6.07 3.84-.54 7.05 2.47 8.84 5.57 3.04 5.01 2.44 11.17 1.68 16.72-2.38 11.87-10.44 21.56-18.82 29.87-11.59 11.04-24.61 20.67-38.79 28.13-21.32 11.25-45.85 16.53-69.9 14.29-14.76-1.33-29.59-6.39-40.73-16.43-10.49-9.16-17.01-22.25-19.34-35.87-3.75-21.66.2-43.94 7.52-64.43 8.51-23.42 21.12-45.16 35.58-65.38 16.89-23.41 37.25-44.36 60.48-61.52 12.3-9.01 25.58-16.91 40.02-21.99m27.17 31.27c-10.04 4.63-18.51 11.95-26.59 19.37-24.8 23.54-46.26 51.25-59.94 82.73 7.8.83 15.78.18 23.25-2.27 17.44-5.65 31.76-17.92 44.14-31.06 11.24-12.29 21.98-25.27 29.95-39.98 3.79-7.29 7.04-15.24 6.97-23.58.1-3.16-1.41-6.89-4.82-7.6-4.44-.87-8.93.65-12.96 2.39zM1318.3 126.29c3.46-3.23 7.1-6.94 11.94-7.86 8.83-.51 16.99 4.22 23.39 9.92 5.23 4.81 10.39 10.21 12.78 17.06.87 3 1.55 6.77-.71 9.35-6.93 8.16-13.22 16.83-19.21 25.7-19.35 29.01-35.06 60.34-48.41 92.51 27.68-39.75 57.15-78.32 89.58-114.33 10.88-11.76 22.07-23.45 35.21-32.74 6.18-4.15 13.26-8.41 21.02-7.4 10.45 1.2 19.03 8.21 25.92 15.69 4.71 4.87 8.13 10.83 10.19 17.29v5.13c-.35.52-1.04 1.58-1.39 2.11-23.47 28.48-44.14 59.77-57.68 94.26-1.3 2.93-1.54 6.19-2.82 9.11-1.8 3.4-6.36 3.63-9.57 2.4-4.72-1.92-8.06-6.04-10.89-10.11-6.3-9.12-8.06-20.57-7.69-31.44.35-10.77 3.54-21.15 7.13-31.22-13.36 13.85-25.59 28.77-37.71 43.71-23.37 29.33-45.33 59.81-65.61 91.35-9.71 15.41-19.15 31.1-26.03 48.01-2.22 5.37-8.05 8.39-13.69 8.24-11.04.29-20.82-6.25-28.27-13.82-7.75-7.72-12.6-18.27-13.13-29.22-.62-12.4 2.59-24.58 6.2-36.33 5.65-17.76 13.16-34.86 21.13-51.68 15.23-32.06 32.46-63.22 52.45-92.57 7.94-11.53 16.04-23.08 25.87-33.12z"/>
    </g>
</svg>