<?xml version="1.0" encoding="UTF-8"?>
<svg xmlns="http://www.w3.org/2000/svg" width="24pt" height="24pt"
     viewBox="0 0 24 24" version="1.1">
    <g id="surface1">
        <path style=" stroke:none;fill-rule:nonzero;fill:#FEFEFE;fill-opacity:1;"
              d="M 12 3 C 9.789063 3 8 4.789063 8 7 C 8 9.210938 9.789063 11 12 11 C 14.210938 11 16 9.210938 16 7 C 16 4.789063 14.210938 3 12 3 Z M 12 5 C 13.101563 5 14 5.898438 14 7 C 14 8.101563 13.101563 9 12 9 C 10.898438 9 10 8.101563 10 7 C 10 5.898438 10.898438 5 12 5 Z M 12 13 C 5.921875 13 4 17 4 17 L 4 20 L 20 20 L 20 17 C 20 17 18.078125 13 12 13 Z M 12 15 C 15.761719 15 17.464844 16.820313 18 17.5625 L 18 18 L 6 18 L 6 17.5625 C 6.554688 16.800781 8.257813 15 12 15 Z "/>
    </g>
</svg>
