<?xml version="1.0" encoding="UTF-8"?>
<svg xmlns="http://www.w3.org/2000/svg" width="24pt" height="24pt"
     viewBox="0 0 24 24" version="1.1">
    <g id="surface1">
        <path style=" stroke:none;fill-rule:nonzero;fill:#FEFEFE;fill-opacity:1;"
              d="M 6.492188 2.25 C 6.101563 2.25 5.714844 2.390625 5.390625 2.648438 L 5.34375 2.671875 L 5.320313 2.695313 L 2.976563 5.109375 L 3 5.132813 C 2.277344 5.800781 2.054688 6.800781 2.367188 7.664063 C 2.371094 7.671875 2.363281 7.683594 2.367188 7.6875 C 3.003906 9.507813 4.628906 13.019531 7.804688 16.195313 C 10.992188 19.382813 14.550781 20.945313 16.3125 21.632813 L 16.335938 21.632813 C 17.246094 21.9375 18.234375 21.722656 18.9375 21.117188 L 21.304688 18.75 C 21.925781 18.128906 21.925781 17.050781 21.304688 16.429688 L 18.257813 13.382813 L 18.234375 13.335938 C 17.613281 12.714844 16.511719 12.714844 15.890625 13.335938 L 14.390625 14.835938 C 13.847656 14.574219 12.558594 13.90625 11.320313 12.726563 C 10.09375 11.554688 9.464844 10.207031 9.234375 9.679688 L 10.734375 8.179688 C 11.363281 7.550781 11.375 6.5 10.710938 5.882813 L 10.734375 5.859375 L 10.664063 5.789063 L 7.664063 2.695313 L 7.640625 2.671875 L 7.59375 2.648438 C 7.273438 2.390625 6.886719 2.25 6.492188 2.25 Z M 6.492188 3.75 C 6.546875 3.75 6.605469 3.777344 6.65625 3.820313 L 9.65625 6.890625 L 9.726563 6.960938 C 9.722656 6.957031 9.769531 7.035156 9.679688 7.125 L 7.804688 9 L 7.453125 9.328125 L 7.617188 9.796875 C 7.617188 9.796875 8.480469 12.101563 10.289063 13.828125 L 10.453125 13.96875 C 12.195313 15.558594 14.25 16.429688 14.25 16.429688 L 14.71875 16.640625 L 16.945313 14.414063 C 17.074219 14.285156 17.050781 14.285156 17.179688 14.414063 L 20.25 17.484375 C 20.378906 17.613281 20.378906 17.566406 20.25 17.695313 L 17.953125 19.992188 C 17.609375 20.289063 17.242188 20.351563 16.804688 20.203125 C 15.105469 19.535156 11.804688 18.085938 8.859375 15.140625 C 5.890625 12.171875 4.34375 8.808594 3.773438 7.171875 C 3.660156 6.867188 3.742188 6.417969 4.007813 6.1875 L 4.054688 6.140625 L 6.328125 3.820313 C 6.382813 3.777344 6.4375 3.75 6.492188 3.75 Z "/>
    </g>
</svg>
