<?xml version="1.0" encoding="UTF-8"?>
<svg xmlns="http://www.w3.org/2000/svg" width="24pt" height="24pt"
     viewBox="0 0 24 24" version="1.1">
    <g id="surface1">
        <path style=" stroke:none;fill-rule:nonzero;fill:#FEFEFE;fill-opacity:1;"
              d="M 10 2 C 7.789063 2 6 3.789063 6 6 C 6 8.210938 7.789063 10 10 10 C 12.210938 10 14 8.210938 14 6 C 14 3.789063 12.210938 2 10 2 Z M 10 12 C 3.921875 12 2 16 2 16 L 2 18 L 10.875 18 C 10.632813 17.378906 10.5 16.707031 10.5 16 C 10.5 14.511719 11.097656 13.148438 12.0625 12.15625 C 11.433594 12.050781 10.75 12 10 12 Z M 16 12 C 13.800781 12 12 13.800781 12 16 C 12 18.199219 13.800781 20 16 20 C 16.734375 20 17.40625 19.785156 18 19.4375 L 20.28125 21.71875 L 21.71875 20.28125 L 19.4375 18 C 19.785156 17.40625 20 16.734375 20 16 C 20 13.800781 18.199219 12 16 12 Z M 16 14 C 17.117188 14 18 14.882813 18 16 C 18 17.117188 17.117188 18 16 18 C 14.882813 18 14 17.117188 14 16 C 14 14.882813 14.882813 14 16 14 Z "/>
    </g>
</svg>
