<?xml version="1.0" encoding="UTF-8"?>
<svg xmlns="http://www.w3.org/2000/svg" width="24pt" height="24pt"
     viewBox="0 0 24 24" version="1.1">
    <g id="surface1">
        <path style=" stroke:none;fill-rule:nonzero;fill:#FFFFFF;fill-opacity:1;"
              d="M 12 2.25 C 11.65625 2.25 11.296875 2.269531 10.910156 2.316406 L 11.074219 3.804688 C 11.410156 3.769531 11.710938 3.75 12 3.75 C 16.550781 3.75 20.25 7.449219 20.25 12 C 20.25 16.550781 16.550781 20.25 12 20.25 C 11.710938 20.25 11.410156 20.234375 11.082031 20.195313 L 10.917969 21.6875 C 11.300781 21.730469 11.65625 21.75 12 21.75 C 17.375 21.75 21.75 17.375 21.75 12 C 21.75 6.625 17.375 2.25 12 2.25 Z M 8.78125 2.804688 C 8.09375 3.042969 7.433594 3.367188 6.816406 3.753906 L 7.613281 5.023438 C 8.136719 4.695313 8.695313 4.425781 9.277344 4.21875 Z M 5.105469 5.105469 C 4.609375 5.605469 4.152344 6.183594 3.75 6.820313 L 5.023438 7.617188 C 5.363281 7.074219 5.75 6.585938 6.164063 6.167969 Z M 15.9375 8.507813 L 11.15625 13.964844 L 7.96875 11.414063 L 7.03125 12.585938 L 11.34375 16.035156 L 17.0625 9.492188 Z M 2.800781 8.785156 C 2.558594 9.488281 2.394531 10.203125 2.316406 10.914063 L 3.804688 11.078125 C 3.871094 10.484375 4.011719 9.875 4.21875 9.28125 Z M 3.804688 12.925781 L 2.316406 13.09375 C 2.398438 13.804688 2.5625 14.519531 2.808594 15.222656 L 4.222656 14.726563 C 4.015625 14.128906 3.875 13.527344 3.804688 12.925781 Z M 5.023438 16.390625 L 3.757813 17.1875 C 4.15625 17.824219 4.613281 18.402344 5.109375 18.898438 L 6.171875 17.835938 C 5.75 17.417969 5.363281 16.929688 5.023438 16.390625 Z M 7.621094 18.984375 L 6.820313 20.25 C 7.4375 20.640625 8.097656 20.957031 8.789063 21.199219 L 9.28125 19.78125 C 8.699219 19.578125 8.140625 19.308594 7.621094 18.984375 Z "/>
    </g>
</svg>
