<?xml version="1.0" encoding="UTF-8"?>
<svg xmlns="http://www.w3.org/2000/svg" width="30pt" height="30pt"
     viewBox="0 0 30 30" version="1.1">
    <g id="surface1">
        <path style=" stroke:none;fill-rule:nonzero;fill:#696969;fill-opacity:1;"
              d="M 15 3.75 C 12.890625 3.75 11.46875 4.582031 10.195313 5.273438 C 8.921875 5.964844 7.761719 6.5625 5.625 6.5625 L 4.6875 6.5625 L 4.6875 7.5 C 4.6875 14.734375 7.132813 19.445313 9.609375 22.296875 C 12.085938 25.144531 14.648438 26.191406 14.648438 26.191406 L 15 26.308594 L 15.351563 26.191406 C 15.351563 26.191406 17.914063 25.164063 20.390625 22.324219 C 22.867188 19.484375 25.3125 14.761719 25.3125 7.5 L 25.3125 6.5625 L 24.375 6.5625 C 22.246094 6.5625 21.078125 5.964844 19.804688 5.273438 C 18.53125 4.582031 17.109375 3.75 15 3.75 Z M 15 5.625 C 16.640625 5.625 17.582031 6.199219 18.898438 6.914063 C 20.007813 7.519531 21.476563 8.097656 23.378906 8.289063 C 23.199219 14.632813 21.101563 18.664063 18.984375 21.09375 C 17.066406 23.292969 15.453125 24.027344 15 24.226563 C 14.542969 24.023438 12.933594 23.273438 11.015625 21.0625 C 8.898438 18.628906 6.800781 14.605469 6.621094 8.289063 C 8.527344 8.097656 9.992188 7.519531 11.101563 6.914063 C 12.417969 6.199219 13.359375 5.625 15 5.625 Z M 14.0625 8.4375 L 14.0625 16.875 L 15.9375 16.875 L 15.9375 8.4375 Z M 14.0625 18.75 L 14.0625 20.625 L 15.9375 20.625 L 15.9375 18.75 Z "/>
    </g>
</svg>
