<?xml version="1.0" encoding="UTF-8"?>
<svg xmlns="http://www.w3.org/2000/svg" width="24pt" height="24pt"
     viewBox="0 0 24 24" version="1.1">
    <g id="surface1">
        <path style=" stroke:none;fill-rule:evenodd;fill:#FEFEFE;fill-opacity:1;"
              d="M 8 2 C 4.699219 2 2 4.699219 2 8 C 2 11.300781 4.699219 14 8 14 C 11.300781 14 14 11.300781 14 8 C 14 4.699219 11.300781 2 8 2 Z M 17 2 L 17 4 L 13.6875 4 C 14.488281 5.101563 15 6.5 15 8 C 15 8.300781 15.007813 8.699219 14.90625 9 L 20 9 L 20 20 L 6 20 L 6 14.6875 C 5.300781 14.488281 4.601563 14.1875 4 13.6875 L 4 20 C 4 21.101563 4.898438 22 6 22 L 20 22 C 21.101563 22 22 21.101563 22 20 L 22 6 C 22 4.898438 21.101563 4 20 4 L 19 4 L 19 2 Z M 8 4 C 10.222656 4 12 5.777344 12 8 C 12 10.222656 10.222656 12 8 12 C 5.777344 12 4 10.222656 4 8 C 4 5.777344 5.777344 4 8 4 Z M 7 5 L 7 8.40625 L 7.28125 8.71875 L 8.90625 10.3125 L 10.3125 8.90625 L 9 7.5625 L 9 5 Z M 13 13 L 13 18 L 18 18 L 18 13 Z "/>
    </g>
</svg>
