<?xml version="1.0" encoding="UTF-8"?>
<svg xmlns="http://www.w3.org/2000/svg" width="24pt" height="24pt"
     viewBox="0 0 24 24" version="1.1">
    <g id="surface1">
        <path style=" stroke:none;fill-rule:nonzero;fill:#FEFEFE;fill-opacity:1;"
              d="M 12 2.90625 L 11.671875 3.070313 L 4.171875 6.75 L 3.75 6.960938 L 3.75 8.25 L 20.25 8.25 L 20.25 6.960938 L 19.828125 6.75 L 12.328125 3.070313 Z M 12 4.59375 L 16.40625 6.75 L 7.59375 6.75 Z M 5.25 9 L 5.25 16.5 L 4.5 16.5 L 4.5 18 L 19.5 18 L 19.5 16.5 L 18.75 16.5 L 18.75 9 L 17.25 9 L 17.25 16.5 L 15.75 16.5 L 15.75 9 L 14.25 9 L 14.25 16.5 L 12.75 16.5 L 12.75 9 L 11.25 9 L 11.25 16.5 L 9.75 16.5 L 9.75 9 L 8.25 9 L 8.25 16.5 L 6.75 16.5 L 6.75 9 Z M 3 18.75 L 3 20.25 L 21 20.25 L 21 18.75 Z "/>
    </g>
</svg>
