<?xml version="1.0" encoding="UTF-8"?>
<svg xmlns="http://www.w3.org/2000/svg" width="17pt" height="17pt"
     viewBox="0 0 17 17" version="1.1">
    <g id="surface1">
        <path style=" stroke:none;fill-rule:nonzero;fill:#FEFEFE;fill-opacity:1;"
              d="M 1.375 15.039063 C 1.375 15.039063 1.375 14.710938 1.375 14.582031 C 1.375 13.144531 3.855469 11.835938 6.210938 11.375 C 6.210938 11.375 6.40625 11.117188 6.40625 10.460938 C 5.230469 10.460938 2.617188 11.117188 2.617188 11.117188 C 2.617188 3.269531 4.121094 0 8.171875 0 C 9.414063 0 9.808594 0.652344 9.808594 0.652344 C 12.03125 0.652344 13.730469 1.960938 13.730469 11.117188 C 13.730469 11.117188 11.507813 10.460938 10.003906 10.460938 C 10.003906 11.117188 10.132813 11.375 10.132813 11.375 C 12.488281 11.835938 14.972656 13.144531 14.972656 14.582031 C 14.972656 14.710938 14.972656 15.039063 14.972656 15.039063 C 14.972656 15.953125 11.441406 16.933594 8.171875 16.933594 C 4.96875 16.871094 1.375 16.542969 1.375 15.039063 Z "/>
    </g>
</svg>
