<?xml version="1.0" encoding="UTF-8"?>
<svg xmlns="http://www.w3.org/2000/svg" width="17pt" height="17pt"
     viewBox="0 0 17 17" version="1.1">
    <g id="surface1">
        <path style=" stroke:none;fill-rule:nonzero;fill:#FEFEFE;fill-opacity:1;"
              d="M 1.375 15.039063 C 1.375 15.039063 1.375 14.058594 1.375 13.925781 C 1.375 12.488281 3.53125 11.183594 5.882813 10.722656 C 5.882813 10.722656 6.605469 10.332031 6.40625 9.609375 C 5.6875 8.695313 5.492188 7.714844 5.492188 7.714844 C 5.359375 7.648438 5.164063 7.519531 5.035156 7.390625 C 4.835938 7.125 4.578125 6.34375 4.644531 5.753906 C 4.707031 5.230469 4.835938 5.425781 4.902344 5.296875 C 4.378906 4.121094 4.644531 2.617188 5.230469 1.503906 C 6.472656 -0.652344 9.085938 0 9.480469 0.785156 C 11.964844 0.328125 11.898438 4.25 11.507813 5.230469 C 11.507813 5.230469 11.703125 5.296875 11.703125 6.210938 C 11.640625 7.191406 10.855469 7.78125 10.855469 7.78125 C 10.855469 8.042969 10.527344 8.828125 10.003906 9.546875 C 9.546875 10.460938 10.460938 10.65625 10.460938 10.65625 C 12.816406 11.117188 14.972656 12.421875 14.972656 13.859375 C 14.972656 13.992188 14.972656 14.972656 14.972656 14.972656 C 14.972656 15.890625 11.441406 16.871094 8.171875 16.871094 C 4.96875 16.871094 1.375 16.542969 1.375 15.039063 Z "/>
    </g>
</svg>
