<?xml version="1.0" encoding="UTF-8"?>
<svg xmlns="http://www.w3.org/2000/svg" width="24pt" height="24pt"
     viewBox="0 0 24 24" version="1.1">
    <g id="surface1">
        <path style=" stroke:none;fill-rule:nonzero;fill:#FEFEFE;fill-opacity:1;"
              d="M 12 3.75 C 9.109375 3.75 6.75 6.109375 6.75 9 C 6.75 10.808594 7.671875 12.414063 9.070313 13.359375 C 6.394531 14.507813 4.5 17.164063 4.5 20.25 L 6 20.25 C 6 16.929688 8.679688 14.25 12 14.25 C 15.324219 14.25 18 16.929688 18 20.25 L 19.5 20.25 C 19.5 17.164063 17.605469 14.507813 14.929688 13.359375 C 16.328125 12.414063 17.25 10.808594 17.25 9 C 17.25 6.109375 14.890625 3.75 12 3.75 Z M 12 5.25 C 14.082031 5.25 15.75 6.921875 15.75 9 C 15.75 11.082031 14.082031 12.75 12 12.75 C 9.921875 12.75 8.25 11.082031 8.25 9 C 8.25 6.921875 9.921875 5.25 12 5.25 Z "/>
    </g>
</svg>
