<?xml version="1.0" encoding="UTF-8"?>
<svg xmlns="http://www.w3.org/2000/svg" width="24pt" height="24pt"
     viewBox="0 0 24 24" version="1.1">
    <g id="surface1">
        <path style=" stroke:none;fill-rule:nonzero;fill:#FEFEFE;fill-opacity:1;"
              d="M 3.5 2 C 3.5 2 2 3.671875 2 4.5 C 2 5.328125 2.671875 6 3.5 6 C 4.328125 6 5 5.328125 5 4.5 C 5 3.671875 3.5 2 3.5 2 Z M 11 3 L 11 5.0625 C 6.5 5.558594 3 9.367188 3 14 C 3 14 4.117188 13 5.5 13 C 6.882813 13 8 14 8 14 C 8 14 9.789063 13 12 13 C 14.210938 13 16 14 16 14 C 16 14 17.117188 13 18.5 13 C 19.882813 13 21 14 21 14 C 21 9.367188 17.5 5.558594 13 5.0625 L 13 3 Z M 20.5 3 C 20.5 3 19 4.671875 19 5.5 C 19 6.328125 19.671875 7 20.5 7 C 21.328125 7 22 6.328125 22 5.5 C 22 4.671875 20.5 3 20.5 3 Z M 12 14 C 11.652344 14 11.320313 14.046875 11 14.09375 L 11 19.5 C 11 19.777344 10.777344 20 10.5 20 C 10.222656 20 10 19.777344 10 19.5 L 10 19 L 8 19 L 8 19.5 C 8 20.878906 9.121094 22 10.5 22 C 11.878906 22 13 20.878906 13 19.5 L 13 14.09375 C 12.679688 14.046875 12.347656 14 12 14 Z "/>
    </g>
</svg>
