<?xml version="1.0" encoding="UTF-8" ?>
<!DOCTYPE svg PUBLIC "-//W3C//DTD SVG 1.1//EN" "http://www.w3.org/Graphics/SVG/1.1/DTD/svg11.dtd">
<svg width="1932pt" height="435pt" viewBox="0 0 1932 435" version="1.1" xmlns="http://www.w3.org/2000/svg">
    <g id="#3e6974eb">
        <path fill="#3e6974" opacity="0.92"
              d=" M 194.01 21.79 C 228.02 18.03 263.14 21.66 295.18 33.95 L 295.42 34.83 C 293.37 40.43 291.10 45.95 289.12 51.57 C 285.85 50.87 282.75 49.63 279.59 48.59 C 248.89 38.57 215.62 36.59 183.88 42.31 C 182.31 42.52 180.82 43.07 179.38 43.69 C 187.06 58.54 194.75 73.39 203.05 87.92 C 207.87 95.68 212.24 103.96 219.11 110.17 C 220.41 110.71 221.86 110.51 223.24 110.59 C 209.18 111.29 196.46 121.44 191.22 134.30 C 191.08 134.01 190.81 133.43 190.68 133.15 C 183.70 126.78 177.63 119.45 172.44 111.57 C 160.66 94.07 149.36 76.26 138.38 58.25 C 118.79 67.46 102.03 81.63 85.99 95.91 C 82.74 93.58 80.28 90.33 77.19 87.80 C 75.78 86.31 73.69 85.20 73.04 83.15 C 74.86 80.64 77.33 78.69 79.53 76.53 C 97.58 60.47 117.57 46.28 139.81 36.63 C 157.05 29.16 175.30 23.89 194.01 21.79 Z"/>
        <path fill="#3e6974" opacity="0.92"
              d=" M 248.43 112.87 C 250.22 115.36 249.52 118.46 249.46 121.30 C 252.14 122.81 255.76 123.61 257.21 126.62 C 257.80 129.35 256.77 132.11 256.89 134.86 C 259.18 136.67 262.07 137.61 264.14 139.73 C 264.05 142.83 264.03 145.93 264.40 149.01 C 266.61 150.17 269.50 150.85 270.58 153.38 C 271.05 155.18 270.83 157.07 270.92 158.92 C 274.98 161.81 278.18 165.96 282.51 168.39 C 286.44 167.49 290.34 166.01 294.46 166.47 C 294.79 166.77 295.46 167.36 295.79 167.65 C 297.42 167.72 299.05 167.73 300.69 167.80 C 310.14 171.11 318.91 177.46 323.35 186.63 C 323.56 187.12 323.99 188.11 324.21 188.61 C 325.05 190.58 323.05 192.16 322.34 193.85 C 325.20 196.26 328.30 198.60 330.27 201.84 C 331.67 204.01 331.39 206.68 331.53 209.14 C 329.90 212.27 326.70 213.52 323.50 214.42 C 323.31 217.34 323.94 220.61 322.19 223.18 C 320.08 225.63 316.31 225.04 313.87 227.00 C 312.79 229.57 314.48 233.05 312.07 235.08 C 310.13 237.33 307.06 237.62 304.41 238.47 C 303.46 241.48 304.67 245.66 301.55 247.57 C 299.54 249.36 296.47 248.06 294.32 249.37 C 293.57 251.49 292.15 253.24 290.90 255.08 L 291.33 253.59 L 291.54 252.93 C 292.25 251.54 294.61 249.24 292.46 248.07 C 286.57 244.26 282.10 238.75 276.84 234.18 C 273.66 231.47 270.74 228.49 267.59 225.76 C 266.88 225.17 266.17 224.60 265.48 224.01 C 260.54 219.97 256.15 214.62 255.38 208.07 C 254.48 203.32 255.59 198.59 256.79 194.01 C 253.40 189.51 248.39 186.58 244.47 182.58 C 242.16 180.73 240.19 177.69 236.97 177.64 C 243.38 174.29 250.12 171.64 256.72 168.71 C 260.52 166.97 264.94 166.04 267.83 162.80 C 270.22 160.19 270.22 156.28 269.53 153.01 C 268.04 151.02 265.17 150.58 263.73 148.59 C 263.23 145.54 264.26 142.18 262.83 139.34 C 261.10 137.59 258.49 137.12 256.54 135.66 C 255.44 132.55 257.01 129.22 256.29 126.06 C 254.27 123.93 251.36 123.12 248.74 122.03 C 248.79 118.97 248.69 115.92 248.43 112.87 Z"/>
        <path fill="#3e6974" opacity="0.92"
              d=" M 55.57 144.33 C 58.03 139.77 59.53 134.65 62.88 130.61 C 61.59 134.57 59.27 138.05 57.50 141.79 C 52.79 151.12 49.60 161.10 46.50 171.05 C 45.46 175.55 43.89 179.95 43.56 184.59 C 47.06 184.65 50.58 184.73 54.04 184.08 C 59.35 183.01 64.83 184.03 70.11 182.74 C 75.81 182.48 81.42 181.38 87.12 181.13 C 88.51 181.08 90.02 180.82 90.87 179.59 L 90.66 180.38 C 95.57 179.82 100.46 179.03 105.28 177.92 C 96.97 181.52 87.74 181.80 78.85 182.63 C 76.86 182.28 74.83 182.39 72.98 183.24 C 63.13 184.17 53.27 185.27 43.37 185.41 C 43.25 181.46 44.10 177.61 45.26 173.86 C 47.72 163.71 51.27 153.84 55.57 144.33 Z"/>
        <path fill="#3e6974" opacity="0.92"
              d=" M 110.93 215.28 C 117.02 213.46 122.69 210.59 128.49 208.07 C 131.36 209.76 134.45 211.04 137.62 212.03 C 138.80 219.58 138.93 227.28 139.90 234.87 C 140.14 236.86 140.52 238.84 141.01 240.79 C 139.60 241.90 138.22 243.04 136.78 244.10 C 137.42 242.63 138.48 241.47 139.69 240.44 C 139.44 231.57 138.24 222.78 137.30 213.97 C 135.34 211.48 131.84 210.32 128.93 209.19 C 122.18 211.17 115.96 214.79 109.07 216.41 C 100.22 219.13 91.07 220.73 81.93 222.11 C 72.59 223.78 63.24 225.77 53.79 226.41 C 65.58 224.07 77.59 222.86 89.30 220.04 C 96.54 218.63 103.88 217.52 110.93 215.28 Z"/>
        <path fill="#3e6974" opacity="0.92"
              d=" M 48.75 273.87 C 51.15 279.44 52.85 285.29 55.33 290.83 C 58.29 296.68 61.14 302.60 64.33 308.33 C 63.65 309.23 63.06 310.28 62.00 310.81 C 57.66 313.39 53.06 315.57 48.92 318.47 C 46.76 318.90 46.22 316.17 44.95 315.01 C 42.03 308.54 38.08 302.47 36.23 295.58 C 39.57 302.00 42.40 308.69 45.91 315.04 C 46.57 316.24 47.65 317.11 48.61 318.07 C 52.37 315.25 56.62 313.23 60.56 310.70 C 61.86 309.94 63.49 308.82 62.59 307.06 C 60.63 301.81 57.23 297.24 55.17 292.02 C 52.83 286.04 49.68 280.30 48.75 273.87 Z"/>
        <path fill="#3e6974" opacity="0.92"
              d=" M 176.05 310.73 C 180.82 310.38 185.14 308.18 189.49 306.41 L 189.56 307.06 C 186.50 308.44 183.54 310.13 180.22 310.83 C 179.66 320.31 178.93 329.93 176.48 339.11 C 177.17 329.83 179.93 320.75 179.59 311.39 C 171.91 312.20 164.10 312.66 156.50 310.88 C 163.02 310.51 169.55 311.66 176.05 310.73 Z"/>
        <path fill="#3e6974" opacity="0.92"
              d=" M 166.24 390.36 C 168.55 377.40 171.18 364.48 174.06 351.64 C 174.11 356.26 172.24 360.56 171.75 365.11 C 170.43 373.43 168.05 381.58 167.02 389.95 C 186.70 395.89 207.37 398.78 227.94 397.64 C 232.03 397.21 236.12 396.85 240.23 396.82 C 215.50 400.54 190.11 397.42 166.24 390.36 Z"/>
        <path fill="#3e6974" opacity="0.92"
              d=" M 121.82 369.62 C 123.48 369.28 125.59 370.26 126.74 371.47 L 126.62 371.91 C 125.29 372.12 123.92 371.89 122.77 371.17 C 122.53 370.79 122.05 370.01 121.82 369.62 Z"/>
    </g>
    <g id="#c39b30ff">
        <path fill="#c39b30" opacity="1.00"
              d=" M 307.45 46.26 C 308.21 44.82 308.72 43.14 310.02 42.05 C 316.72 44.56 322.60 48.71 328.53 52.62 C 341.48 61.16 353.40 71.23 364.02 82.53 L 362.96 82.33 C 362.05 81.89 361.17 81.39 360.43 80.70 C 346.23 65.42 329.02 53.11 310.63 43.37 C 307.25 48.24 304.86 53.68 302.36 59.02 C 308.05 62.80 315.01 65.00 319.59 70.23 C 314.03 67.22 308.87 63.50 303.15 60.79 C 302.23 60.27 300.62 59.44 301.27 58.12 C 303.11 54.06 305.61 50.33 307.45 46.26 Z"/>
        <path fill="#c39b30" opacity="1.00"
              d=" M 372.64 135.55 C 373.90 134.49 375.33 132.58 377.17 133.63 C 379.05 135.86 380.24 138.57 381.48 141.19 C 384.81 148.78 388.04 156.44 390.39 164.39 C 391.86 169.49 393.78 174.53 393.87 179.90 L 393.37 178.64 C 391.50 173.57 390.85 168.15 388.95 163.10 C 387.86 160.17 386.71 157.26 385.74 154.29 C 384.88 154.74 384.01 155.18 383.14 155.60 C 383.33 154.38 384.23 153.48 384.88 152.48 C 382.35 146.09 379.89 139.62 376.11 133.84 C 372.11 137.72 368.35 141.95 363.79 145.19 C 366.14 141.47 369.55 138.63 372.64 135.55 Z"/>
        <path fill="#c39b30" opacity="1.00"
              d=" M 358.92 149.55 C 359.11 147.56 360.73 146.18 362.66 145.95 C 363.04 147.67 360.50 149.68 358.92 149.55 Z"/>
        <path fill="#c39b30" opacity="1.00"
              d=" M 349.94 157.89 C 352.38 155.19 355.10 152.74 358.14 150.71 C 355.62 153.99 352.58 156.81 349.46 159.50 C 349.95 160.53 350.59 161.52 350.79 162.68 C 349.95 162.12 349.12 161.54 348.32 160.94 C 342.44 166.67 337.02 172.83 331.44 178.84 C 328.77 181.90 327.06 185.69 324.21 188.61 C 323.99 188.11 323.56 187.12 323.35 186.63 C 326.82 184.27 328.55 180.27 331.39 177.29 C 336.76 170.07 343.94 164.54 349.94 157.89 Z"/>
        <path fill="#c39b30" opacity="1.00"
              d=" M 1057.07 154.55 C 1073.77 150.89 1091.02 150.78 1108.01 151.74 C 1123.08 152.95 1138.94 155.49 1151.43 164.63 C 1160.09 170.87 1165.07 181.41 1165.13 192.01 C 1165.30 212.46 1165.31 232.92 1165.44 253.37 C 1127.50 253.50 1089.55 253.22 1051.61 253.51 C 1051.68 262.66 1051.40 271.81 1051.43 280.96 C 1051.40 286.63 1053.65 292.37 1057.98 296.12 C 1063.78 301.22 1071.58 303.20 1079.06 304.26 C 1090.03 305.62 1101.29 305.51 1112.12 303.13 C 1119.53 301.41 1127.34 297.92 1131.10 290.91 C 1134.88 283.91 1133.12 275.70 1133.26 268.12 C 1143.97 268.04 1154.68 268.14 1165.39 268.07 C 1164.68 280.25 1167.08 293.28 1161.53 304.66 C 1156.81 314.45 1147.08 320.69 1137.09 324.14 C 1120.70 329.73 1103.13 330.29 1085.98 330.00 C 1071.37 329.55 1056.41 328.06 1042.89 322.15 C 1034.76 318.57 1027.28 312.70 1023.38 304.56 C 1020.85 299.44 1019.83 293.70 1019.80 288.03 C 1019.79 256.70 1019.80 225.36 1019.80 194.03 C 1019.64 185.41 1022.09 176.52 1027.84 169.96 C 1035.24 161.36 1046.28 157.04 1057.07 154.55 M 1062.82 181.84 C 1056.35 185.05 1051.68 191.71 1051.50 199.02 C 1051.34 208.66 1051.64 218.30 1051.68 227.94 C 1078.87 227.94 1106.07 227.93 1133.27 227.94 C 1133.34 218.66 1133.52 209.37 1133.51 200.08 C 1133.52 193.69 1130.42 187.36 1125.13 183.72 C 1116.38 177.67 1105.34 176.62 1095.01 176.22 C 1084.12 176.16 1072.69 176.77 1062.82 181.84 Z"/>
        <path fill="#c39b30" opacity="1.00"
              d=" M 1226.92 159.77 C 1235.52 153.38 1246.58 151.88 1256.98 151.20 C 1269.75 150.55 1283.56 151.16 1294.56 158.45 C 1303.31 164.15 1308.06 174.34 1309.26 184.47 C 1310.25 194.02 1309.81 203.65 1310.10 213.23 C 1299.39 213.24 1288.68 213.24 1277.97 213.23 C 1277.88 204.57 1279.69 195.04 1274.80 187.28 C 1270.06 179.60 1260.50 177.03 1252.02 176.57 C 1242.95 176.17 1233.00 176.69 1225.44 182.31 C 1219.65 186.59 1217.37 194.07 1217.50 201.02 C 1217.59 243.00 1217.65 284.98 1217.79 326.97 C 1207.06 327.04 1196.34 326.98 1185.62 327.00 C 1185.56 269.48 1185.69 211.95 1185.55 154.43 C 1196.28 154.19 1207.02 154.41 1217.75 154.32 C 1217.97 161.52 1218.19 168.72 1218.36 175.93 C 1218.95 169.68 1221.76 163.53 1226.92 159.77 Z"/>
        <path fill="#c39b30" opacity="1.00"
              d=" M 72.98 183.24 C 74.83 182.39 76.86 182.28 78.85 182.63 C 77.53 184.75 74.86 183.97 72.98 183.24 Z"/>
        <path fill="#c39b30" opacity="1.00"
              d=" M 396.62 194.61 C 398.52 200.66 398.35 207.10 398.63 213.37 C 404.33 213.70 410.07 212.98 415.73 214.00 C 410.18 214.48 404.60 215.03 399.03 214.74 C 398.74 214.54 398.14 214.13 397.84 213.93 C 397.77 207.47 397.01 201.05 396.62 194.61 Z"/>
        <path fill="#c39b30" opacity="1.00"
              d=" M 174.25 222.77 C 175.68 229.74 174.94 236.93 176.41 243.89 C 166.21 242.94 156.15 240.96 146.00 239.62 C 144.22 239.25 142.56 240.02 141.01 240.79 C 140.52 238.84 140.14 236.86 139.90 234.87 C 140.21 236.32 140.59 237.75 140.97 239.18 C 152.51 238.62 163.64 242.48 175.12 242.75 C 174.64 236.10 173.63 229.44 174.25 222.77 Z"/>
        <path fill="#c39b30" opacity="1.00"
              d=" M 292.46 248.07 C 294.61 249.24 292.25 251.54 291.54 252.93 C 291.16 251.28 290.91 249.21 292.46 248.07 Z"/>
        <path fill="#c39b30" opacity="1.00"
              d=" M 284.85 265.84 C 286.65 261.58 288.71 257.42 291.33 253.59 L 290.90 255.08 C 289.87 258.31 288.08 261.24 286.74 264.34 C 286.41 265.57 288.60 266.97 286.36 267.24 C 286.35 270.69 289.50 273.14 289.71 276.57 C 291.52 285.83 289.33 295.33 286.04 303.99 C 286.28 300.84 286.76 297.71 287.70 294.70 C 289.95 286.88 290.41 277.94 286.12 270.72 C 285.56 269.17 283.89 267.54 284.85 265.84 Z"/>
        <path fill="#c39b30" opacity="1.00"
              d=" M 1346.51 295.67 C 1351.41 294.60 1356.86 294.51 1361.49 296.71 C 1365.69 298.78 1367.77 303.49 1368.07 307.98 C 1368.46 313.27 1368.27 319.34 1364.40 323.41 C 1360.69 327.15 1355.01 327.53 1350.06 327.17 C 1345.95 326.93 1341.64 325.19 1339.44 321.55 C 1336.68 316.92 1336.81 311.21 1337.49 306.05 C 1338.14 301.20 1341.64 296.78 1346.51 295.67 Z"/>
        <path fill="#c39b30" opacity="1.00"
              d=" M 212.89 306.21 C 213.99 307.02 215.06 307.89 216.26 308.58 C 219.03 309.07 221.87 308.07 224.63 308.64 C 226.91 310.30 227.44 313.92 230.34 314.77 C 233.11 314.93 235.89 314.11 238.65 314.57 C 240.80 316.35 241.23 319.97 244.11 320.95 C 246.82 320.86 249.44 320.09 252.15 319.91 C 254.32 319.92 254.41 322.26 254.80 323.82 C 253.84 322.77 252.93 321.68 252.02 320.60 C 249.23 321.95 246.06 322.76 243.00 321.81 C 240.56 320.18 239.53 317.24 237.83 314.97 C 234.81 315.31 231.54 317.23 228.70 315.35 C 225.59 314.16 225.24 307.92 221.03 309.77 C 218.14 311.11 214.50 310.60 212.74 307.76 C 212.77 307.37 212.85 306.60 212.89 306.21 Z"/>
    </g>
    <g id="#ffc911ff">
        <path fill="#ffc911" opacity="1.00"
              d=" M 302.36 59.02 C 304.86 53.68 307.25 48.24 310.63 43.37 C 329.02 53.11 346.23 65.42 360.43 80.70 C 361.17 81.39 362.05 81.89 362.96 82.33 L 364.01 82.86 C 367.76 87.81 372.49 91.94 375.70 97.31 C 385.67 109.19 393.13 122.93 399.73 136.90 C 403.76 146.27 407.45 155.81 410.07 165.68 C 411.00 169.08 410.96 172.71 412.34 176.00 C 415.46 188.38 416.86 201.18 416.84 213.93 L 415.73 214.00 C 410.07 212.98 404.33 213.70 398.63 213.37 C 398.35 207.10 398.52 200.66 396.62 194.61 C 395.63 189.72 394.93 184.78 393.87 179.90 C 393.78 174.53 391.86 169.49 390.39 164.39 C 388.04 156.44 384.81 148.78 381.48 141.19 C 380.24 138.57 379.05 135.86 377.17 133.63 C 375.33 132.58 373.90 134.49 372.64 135.55 C 369.55 138.63 366.14 141.47 363.79 145.19 L 363.40 145.75 L 362.66 145.95 C 360.73 146.18 359.11 147.56 358.92 149.55 L 358.71 150.30 L 358.14 150.71 C 355.10 152.74 352.38 155.19 349.94 157.89 C 343.94 164.54 336.76 170.07 331.39 177.29 C 328.55 180.27 326.82 184.27 323.35 186.63 C 318.91 177.46 310.14 171.11 300.69 167.80 C 298.63 167.15 296.56 166.49 294.62 165.54 C 304.58 148.44 318.49 134.21 331.09 119.11 C 334.22 115.62 337.17 111.86 341.13 109.25 L 340.34 108.32 C 344.14 104.88 347.42 100.92 350.70 96.99 C 345.52 91.59 340.22 86.30 334.45 81.53 C 331.13 78.52 327.15 76.28 324.22 72.86 C 323.02 71.97 321.66 71.35 320.37 70.64 L 319.59 70.23 C 315.01 65.00 308.05 62.80 302.36 59.02 Z"/>
        <path fill="#ffc911" opacity="1.00"
              d=" M 265.51 225.00 C 266.03 225.19 267.07 225.57 267.59 225.76 C 270.74 228.49 273.66 231.47 276.84 234.18 C 282.10 238.75 286.57 244.26 292.46 248.07 C 290.91 249.21 291.16 251.28 291.54 252.93 L 291.33 253.59 C 288.71 257.42 286.65 261.58 284.85 265.84 C 283.89 267.54 285.56 269.17 286.12 270.72 C 290.41 277.94 289.95 286.88 287.70 294.70 C 286.76 297.71 286.28 300.84 286.04 303.99 C 284.99 306.92 283.00 309.35 281.03 311.71 L 280.31 312.59 C 277.83 312.91 275.33 312.77 272.88 312.31 C 270.51 317.74 268.20 323.83 262.38 326.45 C 260.80 326.37 259.22 326.35 257.65 326.38 C 256.72 325.55 255.28 325.02 254.80 323.82 C 254.41 322.26 254.32 319.92 252.15 319.91 C 249.44 320.09 246.82 320.86 244.11 320.95 C 241.23 319.97 240.80 316.35 238.65 314.57 C 235.89 314.11 233.11 314.93 230.34 314.77 C 227.44 313.92 226.91 310.30 224.63 308.64 C 221.87 308.07 219.03 309.07 216.26 308.58 C 215.06 307.89 213.99 307.02 212.89 306.21 C 212.85 306.60 212.77 307.37 212.74 307.76 C 212.36 306.83 212.01 305.90 211.69 304.97 C 211.37 302.69 210.89 300.26 211.81 298.06 C 216.44 287.67 222.13 277.77 226.65 267.35 C 226.91 266.69 227.43 265.36 227.68 264.69 C 230.10 260.26 233.11 255.85 237.71 253.46 C 242.41 250.56 248.06 250.25 253.43 250.29 C 254.94 246.70 256.57 243.16 258.38 239.71 C 260.90 234.87 262.59 229.62 265.51 225.00 Z"/>
    </g>
    <g id="#15a9ffff">
        <path fill="#15a9ff" opacity="1.00"
              d=" M 320.37 70.64 C 321.66 71.35 323.02 71.97 324.22 72.86 C 327.15 76.28 331.13 78.52 334.45 81.53 C 340.22 86.30 345.52 91.59 350.70 96.99 C 347.42 100.92 344.14 104.88 340.34 108.32 L 341.13 109.25 C 337.17 111.86 334.22 115.62 331.09 119.11 C 318.49 134.21 304.58 148.44 294.62 165.54 C 296.56 166.49 298.63 167.15 300.69 167.80 C 299.05 167.73 297.42 167.72 295.79 167.65 C 295.46 167.36 294.79 166.77 294.46 166.47 C 294.31 165.09 295.30 163.98 295.89 162.83 C 305.65 147.05 318.58 133.63 330.43 119.45 C 333.28 115.65 337.04 112.66 339.78 108.77 C 342.93 104.63 347.68 101.54 349.89 96.81 C 341.89 88.15 333.10 80.11 323.37 73.42 C 322.27 72.73 321.02 73.23 319.93 73.60 C 319.36 72.55 319.80 71.56 320.37 70.64 Z"/>
        <path fill="#15a9ff" opacity="1.00"
              d=" M 364.01 82.86 C 368.04 86.91 371.80 91.17 375.24 95.74 C 375.82 95.61 376.96 95.36 377.53 95.23 C 376.13 98.58 379.60 101.10 381.12 103.72 C 384.48 109.00 388.53 113.90 391.06 119.65 C 391.54 119.06 392.02 118.48 392.51 117.89 C 392.55 118.88 392.33 119.80 391.87 120.65 C 392.55 122.66 393.89 124.32 394.97 126.13 C 396.43 130.61 399.39 134.40 400.85 138.90 C 405.27 149.11 409.15 159.62 411.45 170.54 C 411.81 172.35 412.04 174.18 412.34 176.00 C 410.96 172.71 411.00 169.08 410.07 165.68 C 407.45 155.81 403.76 146.27 399.73 136.90 C 393.13 122.93 385.67 109.19 375.70 97.31 C 372.49 91.94 367.76 87.81 364.01 82.86 Z"/>
        <path fill="#15a9ff" opacity="1.00"
              d=" M 692.09 116.22 C 706.06 112.41 720.65 111.73 735.06 111.80 C 750.42 111.97 766.13 113.03 780.63 118.51 C 788.92 121.71 796.93 127.03 801.03 135.16 C 803.76 140.31 804.47 146.22 804.38 151.97 C 804.46 161.18 804.48 170.39 804.65 179.59 C 794.97 179.67 785.28 179.76 775.60 179.55 C 775.76 171.68 775.87 163.81 775.87 155.94 C 775.88 151.04 773.67 146.21 769.90 143.08 C 764.59 138.61 757.67 136.76 750.97 135.60 C 739.38 133.83 727.52 133.80 715.92 135.43 C 707.62 136.77 698.44 139.10 693.09 146.13 C 688.93 151.52 690.06 158.66 689.93 165.01 C 690.09 171.41 688.98 178.43 692.59 184.15 C 696.95 191.30 705.26 194.64 713.04 196.56 C 732.62 200.74 753.01 201.39 772.03 208.10 C 782.22 211.75 792.35 217.31 798.57 226.47 C 802.68 232.46 804.44 239.80 804.35 247.01 C 804.34 263.35 804.40 279.69 804.32 296.03 C 804.33 305.42 799.68 314.61 792.03 320.07 C 779.92 328.83 764.58 331.14 750.05 332.40 C 732.33 333.46 714.33 333.43 696.89 329.74 C 686.55 327.41 675.88 323.50 668.69 315.36 C 663.98 310.08 661.58 303.00 661.50 295.97 C 661.35 285.69 661.32 275.41 661.21 265.13 C 670.86 265.11 680.51 265.13 690.16 265.12 C 690.14 273.08 689.91 281.03 689.96 288.99 C 689.95 294.18 692.53 299.22 696.68 302.32 C 702.23 306.58 709.25 308.29 716.05 309.37 C 727.66 310.97 739.51 310.94 751.10 309.15 C 758.15 307.91 765.54 305.91 770.85 300.82 C 774.31 297.54 775.99 292.74 775.90 288.03 C 775.90 276.00 775.92 263.97 775.89 251.94 C 775.96 246.98 774.00 242.04 770.40 238.61 C 765.40 233.81 758.62 231.46 751.98 229.94 C 730.96 225.73 709.12 224.85 688.88 217.25 C 679.89 213.78 670.81 208.85 665.48 200.52 C 662.48 195.93 661.34 190.39 661.46 184.96 C 661.48 172.96 661.43 160.96 661.49 148.96 C 661.55 141.68 664.09 134.36 669.07 128.97 C 675.11 122.35 683.60 118.61 692.09 116.22 Z"/>
        <path fill="#15a9ff" opacity="1.00"
              d=" M 501.11 114.60 C 512.81 114.54 524.51 114.68 536.20 114.65 C 558.41 166.53 580.51 218.46 602.66 270.36 C 602.91 269.26 603.06 268.15 603.12 267.03 C 603.27 216.20 603.35 165.37 603.56 114.55 C 613.20 114.58 622.84 114.54 632.49 114.57 C 632.47 186.45 632.52 258.34 632.46 330.22 C 620.72 330.07 608.96 330.35 597.22 329.95 C 579.63 288.25 561.72 246.67 544.01 205.02 C 539.45 194.63 535.33 184.05 530.48 173.79 C 530.42 225.93 530.21 278.07 530.09 330.21 C 520.44 330.22 510.79 330.22 501.14 330.21 C 501.13 258.34 501.17 186.47 501.11 114.60 Z"/>
        <path fill="#15a9ff" opacity="1.00"
              d=" M 833.58 293.93 C 833.59 234.12 833.27 174.31 833.45 114.50 C 843.06 114.65 852.68 114.51 862.30 114.58 C 862.20 171.04 862.15 227.50 862.04 283.96 C 861.96 288.60 861.89 293.60 864.55 297.64 C 868.45 303.84 875.74 306.67 882.57 308.30 C 893.52 310.70 904.85 310.92 915.99 310.05 C 924.55 309.21 933.55 307.80 940.74 302.72 C 945.49 299.44 948.26 293.72 948.02 287.95 C 947.96 230.16 947.86 172.37 947.78 114.57 C 957.39 114.50 967.00 114.66 976.61 114.49 C 976.81 174.66 976.49 234.83 976.47 295.01 C 976.74 305.00 971.84 314.91 963.54 320.53 C 951.16 329.10 935.72 331.31 921.05 332.49 C 903.17 333.44 885.00 333.38 867.47 329.39 C 857.40 326.95 847.06 322.88 840.26 314.72 C 835.42 308.98 833.39 301.34 833.58 293.93 Z"/>
        <path fill="#15a9ff" opacity="1.00"
              d=" M 265.48 224.01 C 266.17 224.60 266.88 225.17 267.59 225.76 C 267.07 225.57 266.03 225.19 265.51 225.00 C 262.59 229.62 260.90 234.87 258.38 239.71 C 256.57 243.16 254.94 246.70 253.43 250.29 C 248.06 250.25 242.41 250.56 237.71 253.46 C 233.11 255.85 230.10 260.26 227.68 264.69 C 229.59 259.80 233.24 255.60 237.82 253.03 C 242.43 250.21 248.03 250.08 253.27 249.71 C 257.36 241.15 261.33 232.54 265.48 224.01 Z"/>
    </g>
    <g id="#3f716f38">
        <path fill="#3f716f" opacity="0.22"
              d=" M 57.82 101.84 C 59.10 100.13 60.26 96.77 63.02 98.09 C 66.75 100.25 69.75 103.46 73.44 105.68 C 75.01 106.74 77.38 107.66 77.02 110.01 C 75.98 112.47 73.83 114.27 72.47 116.57 C 69.13 121.01 66.67 126.03 63.33 130.47 L 63.55 129.64 C 66.63 122.85 71.50 117.06 75.61 110.89 C 75.67 110.35 75.78 109.25 75.84 108.71 C 71.43 104.75 66.32 101.66 61.74 97.90 C 40.09 125.52 26.52 159.30 22.33 194.11 C 21.99 199.09 21.58 204.06 20.75 208.99 C 20.39 215.31 20.31 221.69 21.10 227.99 C 21.97 250.97 27.42 273.66 35.94 294.98 C 30.24 286.04 29.00 275.16 25.67 265.24 C 22.19 251.78 20.96 237.87 19.98 224.04 C 19.61 213.64 20.56 203.29 21.45 192.95 C 24.76 173.10 29.50 153.28 38.31 135.09 C 41.94 126.77 46.68 119.02 51.19 111.16 C 53.02 107.79 55.92 105.17 57.82 101.84 Z"/>
        <path fill="#3f716f" opacity="0.22"
              d=" M 411.45 170.54 L 412.26 170.32 C 414.52 181.46 416.98 192.64 417.11 204.05 C 417.16 207.06 417.81 210.03 417.93 213.04 C 417.46 214.76 415.55 215.24 414.00 215.15 C 408.47 215.32 402.94 215.34 397.42 215.44 C 397.40 206.92 396.11 198.45 394.96 190.03 C 394.58 186.20 393.18 182.51 393.37 178.64 L 393.87 179.90 C 394.93 184.78 395.63 189.72 396.62 194.61 C 397.01 201.05 397.77 207.47 397.84 213.93 C 398.14 214.13 398.74 214.54 399.03 214.74 C 404.60 215.03 410.18 214.48 415.73 214.00 L 416.84 213.93 C 416.86 201.18 415.46 188.38 412.34 176.00 C 412.04 174.18 411.81 172.35 411.45 170.54 Z"/>
        <path fill="#3f716f" opacity="0.22"
              d=" M 136.60 298.21 C 138.91 299.02 141.27 299.72 143.62 300.42 C 143.19 302.76 142.79 305.31 144.60 307.19 C 144.19 306.95 143.37 306.48 142.96 306.24 C 142.12 315.78 139.57 325.06 137.15 334.30 C 137.19 332.82 137.22 331.34 137.63 329.92 C 139.53 323.36 140.63 316.61 142.10 309.95 C 142.82 307.00 142.47 303.96 142.47 300.97 C 140.38 300.39 138.11 299.90 136.60 298.21 Z"/>
    </g>
    <g id="#b3b31dff">
        <path fill="#b3b31d" opacity="1.00"
              d=" M 22.33 194.11 C 26.52 159.30 40.09 125.52 61.74 97.90 C 66.32 101.66 71.43 104.75 75.84 108.71 C 75.78 109.25 75.67 110.35 75.61 110.89 C 71.50 117.06 66.63 122.85 63.55 129.64 L 62.88 130.61 C 59.53 134.65 58.03 139.77 55.57 144.33 C 51.27 153.84 47.72 163.71 45.26 173.86 C 44.10 177.61 43.25 181.46 43.37 185.41 C 53.27 185.27 63.13 184.17 72.98 183.24 C 74.86 183.97 77.53 184.75 78.85 182.63 C 87.74 181.80 96.97 181.52 105.28 177.92 C 109.82 176.46 114.35 174.92 118.63 172.80 C 118.33 182.05 119.25 191.37 121.93 200.25 C 123.21 203.48 125.85 205.93 128.49 208.07 C 122.69 210.59 117.02 213.46 110.93 215.28 C 103.88 217.52 96.54 218.63 89.30 220.04 C 77.59 222.86 65.58 224.07 53.79 226.41 C 49.41 227.50 44.92 228.15 40.45 228.77 C 40.14 236.70 42.53 244.38 42.88 252.25 C 43.90 254.75 44.57 257.37 44.97 260.04 C 45.73 264.78 47.50 269.26 48.75 273.87 C 49.68 280.30 52.83 286.04 55.17 292.02 C 57.23 297.24 60.63 301.81 62.59 307.06 C 63.49 308.82 61.86 309.94 60.56 310.70 C 56.62 313.23 52.37 315.25 48.61 318.07 C 47.65 317.11 46.57 316.24 45.91 315.04 C 42.40 308.69 39.57 302.00 36.23 295.58 L 35.94 294.98 C 27.42 273.66 21.97 250.97 21.10 227.99 C 20.31 221.69 20.39 215.31 20.75 208.99 C 21.58 204.06 21.99 199.09 22.33 194.11 Z"/>
        <path fill="#b3b31d" opacity="1.00"
              d=" M 191.22 134.30 C 196.46 121.44 209.18 111.29 223.24 110.59 C 224.56 111.85 225.69 113.30 226.39 115.00 C 231.88 113.31 236.88 109.32 242.91 110.33 C 245.13 110.13 246.69 111.81 248.43 112.87 C 248.69 115.92 248.79 118.97 248.74 122.03 C 251.36 123.12 254.27 123.93 256.29 126.06 C 257.01 129.22 255.44 132.55 256.54 135.66 C 258.49 137.12 261.10 137.59 262.83 139.34 C 264.26 142.18 263.23 145.54 263.73 148.59 C 265.17 150.58 268.04 151.02 269.53 153.01 C 270.22 156.28 270.22 160.19 267.83 162.80 C 264.94 166.04 260.52 166.97 256.72 168.71 C 250.12 171.64 243.38 174.29 236.97 177.64 C 232.01 180.19 226.81 183.12 221.03 182.62 C 214.20 182.88 208.13 179.18 203.09 174.95 C 198.26 177.32 193.30 179.40 188.42 181.67 C 188.34 187.45 189.23 193.48 186.72 198.92 C 188.06 191.03 187.42 182.96 187.29 175.00 C 185.76 164.90 187.24 154.40 183.78 144.61 C 185.88 143.46 188.01 142.35 190.15 141.27 C 190.47 138.94 190.82 136.61 191.22 134.30 Z"/>
    </g>
    <g id="#289da2fa">
        <path fill="#289da2" opacity="0.98"
              d=" M 1577.90 105.24 C 1587.59 105.30 1597.28 105.32 1606.97 105.23 C 1607.30 156.81 1607.02 208.41 1607.11 260.00 C 1607.05 283.27 1607.24 306.54 1607.02 329.81 C 1597.31 329.76 1587.60 329.74 1577.90 329.82 C 1577.64 277.53 1577.87 225.23 1577.79 172.94 C 1577.86 150.37 1577.64 127.80 1577.90 105.24 Z"/>
        <path fill="#289da2" opacity="0.98"
              d=" M 1798.34 105.28 C 1808.10 105.29 1817.88 105.27 1827.65 105.30 C 1827.97 134.17 1827.81 163.05 1828.39 191.91 C 1828.68 185.64 1832.72 180.18 1838.04 177.13 C 1846.19 172.33 1855.76 170.83 1865.03 169.94 C 1877.39 169.01 1890.03 168.78 1902.16 171.70 C 1910.55 173.76 1918.86 177.81 1924.18 184.83 C 1929.25 191.39 1931.08 199.87 1931.06 208.02 C 1931.09 236.67 1931.09 265.32 1931.06 293.97 C 1931.14 303.07 1928.77 312.64 1922.40 319.42 C 1915.38 326.98 1905.08 330.35 1895.12 331.79 C 1882.83 333.43 1870.32 333.00 1858.06 331.38 C 1849.53 330.00 1840.52 327.90 1833.95 321.92 C 1830.55 318.90 1828.69 314.55 1828.39 310.06 C 1827.90 316.62 1827.87 323.19 1827.66 329.76 C 1817.88 329.80 1808.10 329.79 1798.33 329.76 C 1798.34 254.94 1798.32 180.11 1798.34 105.28 M 1855.58 192.77 C 1847.80 193.59 1839.55 195.22 1833.46 200.48 C 1829.27 204.04 1827.29 209.61 1827.40 215.01 C 1827.41 239.36 1827.36 263.70 1827.43 288.05 C 1827.39 294.36 1830.77 300.53 1836.22 303.75 C 1844.49 308.79 1854.50 309.57 1863.96 309.83 C 1873.83 309.72 1884.28 309.06 1893.02 304.00 C 1898.71 300.79 1902.32 294.46 1902.22 287.92 C 1902.26 263.28 1902.28 238.64 1902.21 214.00 C 1902.36 206.40 1897.20 199.57 1890.33 196.71 C 1879.45 192.02 1867.20 191.88 1855.58 192.77 Z"/>
        <path fill="#289da2" opacity="0.98"
              d=" M 1429.89 114.60 C 1445.31 109.33 1461.83 108.56 1477.99 108.59 C 1492.09 108.71 1506.38 109.64 1519.92 113.81 C 1528.35 116.47 1536.73 120.67 1542.25 127.79 C 1546.29 132.95 1548.30 139.50 1548.41 146.01 C 1548.60 156.40 1548.50 166.78 1548.76 177.16 C 1539.01 177.52 1529.25 177.13 1519.50 177.37 C 1519.22 169.25 1519.71 161.12 1519.56 153.00 C 1519.52 147.89 1517.04 142.94 1513.02 139.82 C 1507.33 135.36 1500.09 133.58 1493.08 132.48 C 1481.49 130.89 1469.64 130.91 1458.07 132.64 C 1450.89 133.87 1443.39 135.85 1437.91 140.91 C 1434.30 144.20 1432.48 149.09 1432.57 153.92 C 1432.54 196.29 1432.57 238.66 1432.55 281.03 C 1432.52 286.60 1432.05 292.75 1435.55 297.51 C 1440.23 304.04 1448.40 306.63 1455.94 308.13 C 1468.52 310.33 1481.47 310.37 1494.09 308.51 C 1501.25 307.28 1508.75 305.32 1514.23 300.26 C 1517.91 296.93 1519.72 291.92 1519.60 287.00 C 1519.52 279.34 1519.49 271.68 1519.30 264.03 C 1529.11 263.73 1538.94 263.78 1548.75 264.00 C 1548.52 274.33 1548.59 284.66 1548.41 294.99 C 1548.32 301.77 1546.18 308.61 1541.84 313.88 C 1535.61 321.51 1526.22 325.67 1516.93 328.21 C 1500.36 332.59 1483.04 332.87 1466.02 332.39 C 1453.22 331.84 1440.25 330.44 1428.18 325.92 C 1420.30 322.92 1412.66 318.17 1408.18 310.83 C 1405.05 305.83 1403.73 299.90 1403.75 294.05 C 1403.73 247.03 1403.75 200.00 1403.74 152.98 C 1403.61 146.18 1403.63 139.05 1406.80 132.83 C 1411.21 123.58 1420.50 117.85 1429.89 114.60 Z"/>
        <path fill="#289da2" opacity="0.98"
              d=" M 190.68 133.15 C 190.81 133.43 191.08 134.01 191.22 134.30 C 190.82 136.61 190.47 138.94 190.15 141.27 C 188.01 142.35 185.88 143.46 183.78 144.61 C 181.23 143.51 178.69 141.71 175.77 142.18 C 173.30 142.75 172.26 145.86 169.81 146.40 C 167.08 145.87 164.78 143.91 161.98 143.73 C 159.04 144.35 157.15 147.05 154.58 148.45 C 151.87 148.09 149.80 145.68 147.03 145.40 C 144.44 145.33 142.80 147.64 141.07 149.20 C 138.42 152.49 134.31 147.46 131.13 149.06 C 129.61 149.85 128.24 150.90 126.85 151.90 C 127.90 150.88 128.94 149.86 129.97 148.82 C 133.46 147.88 136.64 149.68 140.04 150.03 C 141.89 147.97 143.82 144.99 147.00 145.34 C 150.06 144.84 152.03 148.42 155.09 147.75 C 157.09 146.35 158.69 144.26 161.08 143.51 C 164.71 142.72 167.44 146.20 171.05 145.85 C 172.19 144.40 173.43 143.05 174.72 141.74 C 177.74 141.57 180.56 142.52 183.23 143.85 C 185.52 143.32 187.72 142.18 189.58 140.76 C 190.45 138.33 190.81 135.73 190.68 133.15 Z"/>
        <path fill="#289da2" opacity="0.98"
              d=" M 1636.26 172.34 C 1646.03 172.45 1655.81 172.22 1665.59 172.46 C 1665.41 211.00 1665.35 249.54 1665.32 288.08 C 1665.15 295.77 1670.39 302.69 1677.39 305.52 C 1688.55 310.22 1701.08 310.33 1712.97 309.28 C 1721.61 308.25 1731.28 306.07 1736.78 298.69 C 1740.83 293.33 1740.12 286.29 1740.12 279.97 C 1740.13 244.08 1739.79 208.18 1740.06 172.30 C 1749.72 172.41 1759.40 172.40 1769.07 172.30 C 1769.42 195.54 1769.12 218.80 1769.22 242.04 C 1769.13 271.30 1769.40 300.57 1769.09 329.83 C 1759.38 329.73 1749.67 329.79 1739.96 329.80 C 1739.71 323.52 1739.42 317.24 1739.50 310.95 C 1738.24 316.10 1735.61 321.06 1731.06 323.99 C 1722.39 329.84 1711.68 331.33 1701.50 332.28 C 1688.50 333.16 1675.14 333.35 1662.53 329.63 C 1654.30 327.22 1646.41 322.49 1641.82 315.07 C 1637.66 308.55 1636.42 300.66 1636.48 293.06 C 1636.40 252.82 1636.25 212.58 1636.26 172.34 Z"/>
        <path fill="#289da2" opacity="0.98"
              d=" M 397.71 227.35 C 404.32 227.35 410.93 227.49 417.53 227.65 C 416.63 251.76 410.34 275.56 400.41 297.50 C 376.21 350.67 328.57 392.62 272.67 409.68 C 270.50 405.33 270.01 400.38 267.77 396.08 C 267.85 394.37 266.09 391.14 268.69 390.78 C 281.50 387.24 293.32 381.05 304.98 374.80 C 317.41 367.27 329.27 358.73 339.83 348.71 C 342.00 346.56 344.60 344.71 346.06 341.97 C 345.14 340.75 343.71 340.10 342.44 339.35 C 328.62 332.03 314.85 324.60 300.57 318.21 C 294.40 315.09 287.68 313.40 281.03 311.71 C 283.00 309.35 284.99 306.92 286.04 303.99 C 289.33 295.33 291.52 285.83 289.71 276.57 C 300.46 278.00 310.96 280.88 320.92 285.16 C 338.50 291.83 355.57 299.77 372.91 307.04 C 374.41 306.13 374.93 304.26 375.84 302.84 C 385.19 286.10 391.99 267.89 395.44 249.01 C 396.64 241.84 398.08 234.67 397.71 227.35 Z"/>
        <path fill="#289da2" opacity="0.98"
              d=" M 141.01 240.79 C 142.56 240.02 144.22 239.25 146.00 239.62 C 156.15 240.96 166.21 242.94 176.41 243.89 C 180.24 244.35 184.11 244.71 187.84 245.81 C 195.70 248.70 201.63 255.95 202.96 264.23 C 210.77 265.87 218.76 266.22 226.65 267.35 C 222.13 277.77 216.44 287.67 211.81 298.06 C 210.89 300.26 211.37 302.69 211.69 304.97 C 211.21 303.52 210.76 302.07 210.32 300.62 C 206.13 300.91 202.06 299.77 197.94 299.48 C 194.63 300.98 193.09 305.14 189.49 306.41 C 185.14 308.18 180.82 310.38 176.05 310.73 C 169.55 311.66 163.02 310.51 156.50 310.88 C 152.33 310.50 148.10 309.64 144.60 307.19 C 142.79 305.31 143.19 302.76 143.62 300.42 C 141.27 299.72 138.91 299.02 136.60 298.21 C 134.59 296.82 133.15 294.55 133.34 292.03 C 133.00 289.25 135.24 287.31 136.38 285.03 C 135.40 282.15 133.51 279.72 132.27 276.96 C 133.73 274.45 135.67 272.29 137.47 270.03 C 137.71 266.98 134.24 265.12 134.49 262.06 C 134.50 259.20 136.92 257.25 138.33 255.00 C 139.12 253.13 137.35 251.62 136.69 250.05 C 135.60 248.44 135.95 246.45 136.07 244.64 L 136.78 244.10 C 138.22 243.04 139.60 241.90 141.01 240.79 Z"/>
        <path fill="#289da2" opacity="0.98"
              d=" M 82.04 362.05 C 91.56 370.37 101.11 378.77 111.97 385.34 C 128.75 396.21 147.18 404.74 166.60 409.64 C 169.07 410.52 171.68 410.93 174.31 410.80 C 174.39 411.04 174.53 411.54 174.60 411.79 C 165.78 410.72 157.44 407.36 149.07 404.54 C 124.27 394.91 100.99 380.83 82.04 362.05 Z"/>
    </g>
    <g id="#ea7128ff">
        <path fill="#ea7128" opacity="1.00"
              d=" M 169.81 146.40 C 172.26 145.86 173.30 142.75 175.77 142.18 C 178.69 141.71 181.23 143.51 183.78 144.61 C 187.24 154.40 185.76 164.90 187.29 175.00 C 187.42 182.96 188.06 191.03 186.72 198.92 C 184.16 204.79 179.13 209.05 173.53 211.92 C 173.74 215.53 174.09 219.14 174.25 222.77 C 173.63 229.44 174.64 236.10 175.12 242.75 C 163.64 242.48 152.51 238.62 140.97 239.18 C 140.59 237.75 140.21 236.32 139.90 234.87 C 138.93 227.28 138.80 219.58 137.62 212.03 C 134.45 211.04 131.36 209.76 128.49 208.07 C 125.85 205.93 123.21 203.48 121.93 200.25 C 119.25 191.37 118.33 182.05 118.63 172.80 C 120.17 170.18 122.63 168.32 125.80 168.55 C 125.85 163.01 124.12 157.07 126.85 151.90 C 128.24 150.90 129.61 149.85 131.13 149.06 C 134.31 147.46 138.42 152.49 141.07 149.20 C 142.80 147.64 144.44 145.33 147.03 145.40 C 149.80 145.68 151.87 148.09 154.58 148.45 C 157.15 147.05 159.04 144.35 161.98 143.73 C 164.78 143.91 167.08 145.87 169.81 146.40 Z"/>
        <path fill="#ea7128" opacity="1.00"
              d=" M 142.96 306.24 C 143.37 306.48 144.19 306.95 144.60 307.19 C 148.10 309.64 152.33 310.50 156.50 310.88 C 164.10 312.66 171.91 312.20 179.59 311.39 C 179.93 320.75 177.17 329.83 176.48 339.11 C 175.73 343.29 174.97 347.48 174.06 351.64 C 171.18 364.48 168.55 377.40 166.24 390.36 C 190.11 397.42 215.50 400.54 240.23 396.82 C 245.28 395.97 250.31 395.07 255.36 394.24 C 256.68 400.56 258.49 406.87 258.74 413.35 C 249.20 414.89 239.63 416.45 229.95 416.75 C 218.96 418.11 207.94 416.74 196.98 415.99 C 189.47 415.22 182.09 413.76 174.72 412.20 L 174.60 411.79 C 174.53 411.54 174.39 411.04 174.31 410.80 C 171.68 410.93 169.07 410.52 166.60 409.64 C 147.18 404.74 128.75 396.21 111.97 385.34 C 101.11 378.77 91.56 370.37 82.04 362.05 C 72.80 353.52 64.74 343.81 57.26 333.73 C 56.67 333.03 56.33 332.23 56.25 331.33 C 59.06 328.72 62.39 326.78 65.49 324.54 C 67.66 323.12 69.63 320.93 72.46 321.14 C 75.36 326.48 79.65 330.85 83.29 335.68 C 93.19 346.82 104.16 357.08 116.42 365.59 C 118.20 366.95 120.33 367.90 121.82 369.62 C 122.05 370.01 122.53 370.79 122.77 371.17 C 123.92 371.89 125.29 372.12 126.62 371.91 L 126.74 371.47 C 128.18 365.54 129.97 359.71 131.81 353.91 C 132.73 349.91 134.12 346.03 134.86 342.00 C 135.79 339.48 136.47 336.89 137.15 334.30 C 139.57 325.06 142.12 315.78 142.96 306.24 Z"/>
    </g>
</svg>
