<svg xmlns="http://www.w3.org/2000/svg" width="1932" height="435" version="1.1" style="">
    <rect id="backgroundrect" width="100%" height="100%" x="0" y="0" fill="none" stroke="none"/>


    <g class="currentLayer" style="">
        <title>Layer 1</title>
        <g fill="#3e6974" id="svg_1">
            <path d="m198.97 21.2c9.27-1.41 18.69-0.64 28.03-0.83 7.4-0.24 14.65 1.4 21.99 2.04 10.67 1.61 21.33 3.56 31.59 6.98 4.8 1.6 9.87 2.51 14.39 4.86-1.35 5.78-3.57 11.41-6.22 16.71-2.43-0.22-4.8-0.85-7.09-1.7-17.19-6.29-35.46-9.02-53.65-10.38-14.82-0.68-29.76 0.35-44.28 3.49-1.41 0.38-3.09 0.41-4.13 1.57 3.41 8.38 8.36 16.01 12.33 24.12 7.72 13.66 14.45 28.15 24.87 40.03 1.86 2.72 5.64 1.76 8.03 3.7-3.57-1.08-7.5-1.8-10.98 0.02-9.71 4.37-19.05 11.81-22.56 22.2-2.38-2.72-4.86-5.34-7.4-7.9-6.67-7.18-11.97-15.47-17.37-23.61-7.36-11.63-15.06-23.05-22.11-34.87-2.01-3.25-3.87-6.65-6.5-9.46-19.27 9.53-36.26 23.09-51.89 37.72-4.58-3.99-9.01-8.22-12.94-12.86 9.22-9.85 20.31-17.73 30.93-26.01 8.04-5.46 16.34-10.61 25.03-15 21.66-11.41 45.66-18.06 69.93-20.82z"
                  opacity=".92" id="svg_2"/>
            <path d="m263.95 166.02c3.49-1.31 5.72-4.47 6.74-7.95 3.28 3.92 7.2 7.27 11.4 10.18 4.2-0.55 8.48-0.93 12.47-2.48 3.25 2.03 7.01 2.88 10.57 4.22 8.3 3.57 14.92 10.38 18.93 18.42-0.49 1.86-1 3.72-1.56 5.56 2.61 2.88 6.4 4.86 7.84 8.66 0.92 2.7 1.17 5.95-0.23 8.53-1.86 1.67-4.44 2.21-6.65 3.29-0.51 2.9-0.35 5.95-1.29 8.75-2.46 2.13-6.32 1.84-8.59 4.2-0.61 2.55-0.38 5.32-1.43 7.76-2.38 1.43-5.13 2.11-7.54 3.49-1.59 2.72-0.15 6.86-3.04 8.88-2.53 1.26-5.39 1.56-8.15 1.93-3.09-3.56-6.6-6.71-10.24-9.69-5.81-4.8-10.3-11.19-16.97-14.91-0.73 0.68-1.44 1.38-2.13 2.1 0.3-1.03 0.57-2.06 0.82-3.09-2.67-3.9-6.91-6.76-8.29-11.48-2.16-5.42-1.49-11.35-0.03-16.84 0.89-2.31-1.53-3.86-2.92-5.26-5.11-4.19-10.24-8.39-14.81-13.18 8.39-3.64 16.69-7.48 25.1-11.09z"
                  opacity=".92" id="svg_3"/>
        </g>
        <g fill="#ffc911" id="svg_4">
            <path d="m309.43 42.32c2.13 0.25 4.05 1.23 5.92 2.22 32.47 18.31 60.01 45.55 77.71 78.43 14.91 27.54 23.53 58.56 24.33 89.89-0.14 1.81-2.39 1.59-3.7 1.69-5.21-0.09-10.42 1.13-15.6 0.28-1.13-14.25-2.53-28.59-6.45-42.41-2.14-10.56-6.88-20.29-10.89-30.21-1.37-2.82-2.21-6.07-4.65-8.19-15.26 14.06-30.13 28.61-44 44.07-2.96 3.22-4.83 7.3-8.04 10.32-4.01-8.04-10.63-14.85-18.93-18.42-3.56-1.34-7.32-2.19-10.57-4.22 2.67-6.3 7.32-11.47 11.18-17.05 13.89-17.05 28.42-33.57 43.11-49.93 1.17-0.96 0.95-2.55-0.18-3.44-11.01-11.85-23.97-21.78-37.62-30.39-3.21-2.17-7-3.43-9.96-5.98 2.54-5.67 5.65-11.06 8.34-16.66z"
                  id="svg_5"/>
            <path d="m266.21 224.86c6.67 3.72 11.16 10.11 16.97 14.91 3.64 2.98 7.15 6.13 10.24 9.69-2.08 6.05-5.65 11.45-7.69 17.52 0.93 2.42 2.16 4.73 2.98 7.2 1.64 5.74 2.47 12.11 0.19 17.8-1.66 4.07-2.64 8.35-3.49 12.64-0.48 3.05-2.62 5.4-4.88 7.34l-0.74 0.38c-0.12 0.04-0.36 0.13-0.48 0.18l-3.28-0.16c-0.37-0.18-1.12-0.55-1.49-0.73l-0.53 0.51c-3.69 2.94-3.84 8.37-7.45 11.42-2.44 2.42-6.08 3.47-9.41 2.52-2.03-1.37-3.26-3.62-5.27-4.98-2.87 0.2-5.72 1.1-8.6 0.66-2.43-1.61-3.57-4.53-5.56-6.6-2.52 0.25-5.01 0.84-7.55 0.77-3.1-0.75-4.25-4.12-6.25-6.24-3.28-0.32-7.17 1.85-9.89-0.71-2.2-1.79-2.66-4.81-3.09-7.44 0.43-5.17 4.3-9.02 5.98-13.75 2.75-7.16 7-13.61 9.83-20.73 2.01-5.51 5.32-10.79 10.55-13.75 4.76-3.1 10.64-2.69 15.96-4.03 3.94-7.27 7.06-14.95 10.82-22.32 0.69-0.72 1.4-1.42 2.13-2.1z"
                  id="svg_6"/>
        </g>
        <g fill="#b3b31c" id="svg_7">
            <path d="m61.22 98.02c4.35 1.46 7.42 5.11 11.27 7.46 1.61 1.32 5.07 2.64 3.57 5.25-5.25 7.94-11.21 15.49-15.14 24.23-6.59 11.64-11.01 24.33-14.8 37.11-1.07 4-2.35 8.01-2.42 12.19 3.37 0.51 6.79 0.34 10.14-0.21 5.03-0.87 10.15-0.36 15.2-0.98 11.73-1.39 23.62-1.98 35.11-4.93 5.16-1.27 9.94-3.66 15.04-5.14-1.09 5.42-0.61 10.98 0.68 16.32 1.44 7.21 3.36 15.39 10.05 19.58-2.36 0.56-4.73 1.17-6.95 2.16-7.59 3.47-15.52 6.49-23.85 7.52-7.49 2.39-15.44 2.77-23.1 4.53-11.69 2.52-23.84 2.76-35.36 5.97-0.26 3.46 0.1 6.93 0.67 10.35 1.61 12.7 3.96 25.42 8.65 37.39 2.19 6.11 4.16 12.34 7.14 18.13 2.25 4.66 5.25 8.98 6.85 13.95-4.77 3.99-10.53 6.59-15.97 9.54-7.72-10.05-11.56-22.4-16.43-33.96-2.7-8.15-4.96-16.48-6.52-24.93-2.14-5.26-2.13-11-3.08-16.52-2.24-18.71-1.99-37.7 0.91-56.32 2.32-11.09 4.48-22.25 8.14-32.99 7.38-19.85 16.96-39.09 30.2-55.7z"
                  id="svg_8"/>
            <path d="m213.85 111.81c3.48-1.82 7.41-1.1 10.98-0.02 0.55 0.97 1.11 1.95 1.68 2.91 6.43-1.78 13.13-6.71 19.91-3.21 3.88 1.8 2.72 6.49 3.16 9.92 2.65 1.64 6.33 2.47 7.55 5.68 0.03 2.58-0.42 5.15-0.3 7.74 1.76 1.17 3.47 2.42 5.16 3.7 0.38 1.77 0.92 3.5 1.43 5.24 0.41 1.6 0.7 3.23 1.07 4.84 3.2 2.3 7.85 4.64 6.2 9.46-1.02 3.48-3.25 6.64-6.74 7.95-8.41 3.61-16.71 7.45-25.1 11.09-6.54 2.88-13.39 6.41-20.78 5.2-5.75-0.5-10.37-4.14-15.11-7.04-5 1.7-9.57 4.4-14.54 6.16-0.97-7.31-2.76-14.55-2.53-21.97 0.24-5.2-0.67-10.44-3.01-15.11 2.1-1.04 4.29-1.91 6.26-3.19 1.21-2.2 1.34-4.8 2.15-7.15 3.51-10.39 12.85-17.83 22.56-22.2z"
                  id="svg_9"/>
        </g>
        <g fill="#289da2" id="svg_10" class="">
            <path d="m1578.3 105.32c9.49-0.03 18.98-0.05 28.47 0.01 0.34 54.55 0.04 109.11 0.14 163.67-0.11 20.23 0.2 40.47-0.14 60.69-9.5 0.07-18.99 0.07-28.48 0-0.4-55.22-0.05-110.46-0.17-165.69 0.13-19.56-0.26-39.13 0.18-58.68z"
                  opacity=".98" id="svg_11"/>
            <path d="m1798.4 105.36c9.75-0.1 19.52-0.11 29.27 0 0.31 27.96-0.08 55.94 0.48 83.89 2.05-3.26 3.62-6.97 6.63-9.52 4.59-4.19 10.68-6.13 16.62-7.54 12.45-2.66 25.28-3.56 37.98-2.48 8.89 0.96 17.97 2.65 25.78 7.23 6.32 3.95 11.59 9.96 13.76 17.19 1.78 5.43 2.1 11.2 1.99 16.88-0.04 26.99-0.02 53.99 0 80.98 0.12 5.35-0.04 10.82-1.94 15.88-2.89 9.42-10.72 16.8-19.82 20.21-9.57 3.66-19.92 4.89-30.11 4.66-8.6 0.24-17.16-0.87-25.61-2.3-7.33-1.54-14.95-4.02-20.22-9.61-2.53-2.46-3.61-5.9-5.06-9-0.55 5.93-0.19 11.88-0.47 17.83-9.76 0.12-19.53 0.12-29.28 0-0.05-74.77-0.05-149.54 0-224.3m58.06 87.15c-7.67 0.76-15.61 2.29-21.94 6.95-5.17 3.7-7.47 10.32-7.29 16.49 0.03 23.37 0.02 46.73 0 70.09-0.05 4.58 0.91 9.31 3.68 13.06 3.74 5.14 10.01 7.5 15.96 9.03 11.83 2.64 24.25 2.64 36.07-0.11 6.07-1.28 12.14-4.09 15.98-9.14 2.61-3.36 3.43-7.71 3.43-11.88-0.05-24.34 0.01-48.68-0.03-73.02 0.21-7.35-4.61-14.11-11.2-17.06-10.79-4.92-23.03-5.3-34.66-4.41z"
                  opacity=".98" id="svg_12"/>
            <path d="m1438.2 112.22c8.17-1.72 16.46-3.19 24.85-3.11 15.87-0.59 31.91-0.52 47.58 2.45 12.33 2.45 25.37 7.28 32.79 18.05 3.91 5.99 5.4 13.29 5.22 20.37-0.1 8.92 0.14 17.85 0.06 26.78-9.77 0.36-19.57 0.38-29.33-0.01-0.13-8.59 0.35-17.18 0.02-25.75-0.25-5.72-4.25-10.57-9.09-13.25-8.01-4.43-17.24-5.88-26.26-6.37-11.28-0.78-22.7 0.07-33.65 2.88-6 1.89-12.42 4.75-15.65 10.47-2.72 4.61-2.06 10.15-2.11 15.27 0.04 42.67-0.01 85.34 0.02 128.01-0.13 5.56 2.75 10.95 7.29 14.12 7.01 4.89 15.67 6.2 23.97 7.18 10.54 1.44 21.27 0.8 31.74-0.88 6.68-1.34 13.6-3.36 18.73-8.07 3.19-2.87 5.07-7.06 5.08-11.36 0.16-8.24-0.18-16.48-0.09-24.72 9.77-0.31 19.57-0.3 29.34 0 0.06 8.91-0.17 17.83-0.07 26.74 0.13 6.87-1.12 13.96-4.77 19.87-3.76 5.55-9.07 10.05-15.17 12.83-9.58 4.68-20.16 6.61-30.66 7.85-15.22 1.05-30.52 1.06-45.73-0.17-11.56-1.68-23.44-3.93-33.45-10.27-8.61-5.32-14.95-14.74-14.75-25.09-0.06-50.02-0.02-100.04-0.02-150.06-0.17-7.17 2.41-14.35 7.27-19.64 6.87-7.83 17.02-11.56 26.84-14.12z"
                  opacity=".98" id="svg_13"/>
            <path d="m1636.4 172.37c9.5-0.05 19-0.03 28.51-0.02 0.87 4.84 0.38 9.76 0.45 14.65-0.04 31.33-0.14 62.67-0.37 94 0 5.73-0.27 11.97 3.08 16.95 4.08 6.61 11.99 9.22 19.2 10.72 11.96 2.17 24.44 1.96 36.2-1.29 6.06-1.7 11.98-5.26 14.95-11 2.62-5.04 1.72-10.92 1.87-16.38 0.02-35.89-0.27-71.78 0.06-107.66h28.43c0.47 23.88 0.06 47.77 0.2 71.66-0.12 28.56 0.24 57.14-0.17 85.69-9.49 0.07-18.99 0.08-28.47 0-0.5-6.22-0.53-12.46-0.67-18.68-1.52 3.77-2.86 7.84-5.96 10.65-5.47 5.24-13.02 7.42-20.25 8.93-11.32 2.19-22.92 2.47-34.4 1.95-10.74-0.82-21.79-3.44-30.49-10.09-8.91-6.89-12.18-18.57-12.14-29.41 0.06-40.22-0.18-80.45-0.03-120.67z"
                  opacity=".98" id="svg_14"/>
            <path d="m398.38 227.35c6.13-0.09 12.27 0.06 18.4 0.07 0.82 7.47-0.22 15.05-1.92 22.33-3.59 22.31-11.35 43.95-22.66 63.51-8.12 14.92-18.82 28.22-30.16 40.79-23.32 24.2-52.22 43.33-84.26 53.77-1.71 0.32-3.63 1.49-5.31 0.72-1.58-1.72-1.82-4.17-2.53-6.3-0.88-3.61-2.72-7.02-2.72-10.79 28.65-8.84 54.82-25.06 76.17-46.03 1.04-1.11 2.01-2.28 2.96-3.46-6.11-4.75-13.53-7.34-20.19-11.21-8.42-4.85-17.39-8.58-26.1-12.85-6.17-2.94-12.73-5.14-19.53-5.94 2.26-1.94 4.4-4.29 4.88-7.34 0.85-4.29 1.83-8.57 3.49-12.64 2.28-5.69 1.45-12.06-0.19-17.8 3.1 3.81 8.29 3.66 12.67 4.64 9.58 1.75 18.3 6.27 27.42 9.48 5.51 1.91 10.57 4.87 16.03 6.9 9.64 3.47 18.74 8.2 28.19 12.12 5.63-7.98 9.2-17.15 13.28-25.97 4.92-12 7.55-24.75 10.39-37.36 1.11-5.49 0.92-11.12 1.69-16.64z"
                  opacity=".98" id="svg_15"/>
            <path d="m139.35 227.67c1.15 3.88 0.95 7.94 1.05 11.94 11.9-0.9 23.33 3.23 35.18 3.12 3.05 1.13 6.21 1.95 9.42 2.51 4.63 0.81 8.74 3.48 12.03 6.74 3.42 3.44 4.37 8.39 6.48 12.6 7.62 1.65 15.45 2.32 23.24 2.48-2.83 7.12-7.08 13.57-9.83 20.73-1.68 4.73-5.55 8.58-5.98 13.75-4.58-0.79-9.15-1.8-13.82-1.85-3.57 2.88-6.41 6.86-10.83 8.54-2.42 0.93-4.65 2.23-6.89 3.51-12.21 1.52-25.08 0.92-36.26-4.66 0.1-2.19 0.18-4.38 0.25-6.56-3.81-0.86-8-2.24-9.8-6.05-1.34-3.52 1.19-6.6 2.77-9.5-0.89-2.42-2.42-4.55-3.18-7.01-0.26-3.27 2.7-5.43 4.07-8.1 0.01-3.07-2.82-5.66-2.37-8.79 0.91-2.46 2.39-4.66 3.5-7.03-0.85-2.6-2.44-5.12-2.24-7.94 0.5-2.29 2.52-3.89 3.23-6.1 0.31-4.1-0.13-8.22-0.02-12.33z"
                  opacity=".98" id="svg_16"/>
            <path d="m274.01 312.14 0.53-0.51c0.37 0.18 1.12 0.55 1.49 0.73-0.39 0.14-1.15 0.42-1.54 0.56l-0.48-0.78z"
                  opacity=".98" id="svg_17"/>
            <path d="m279.31 312.52c0.12-0.05 0.36-0.14 0.48-0.18-0.12 0.04-0.36 0.13-0.48 0.18z" opacity=".98"
                  id="svg_18"/>
        </g>
        <g fill="#dadada" id="svg_19" class="selected" fill-opacity="1">
            <path d="m674.26 124.3c12.1-8.51 27.25-10.77 41.64-12 20.39-1.08 41.29-1.08 61.01 4.84 10.12 3.17 20.27 9.22 24.75 19.25 3.3 6.71 2.65 14.37 2.73 21.61-0.19 7.23 0.54 14.49-0.24 21.69-9.4 0.08-18.8 0.07-28.2 0.01-0.78-8.54 0.28-17.12-0.24-25.66-0.43-6.03-4.84-11.02-10-13.75-7.59-4.01-16.25-5.28-24.7-5.83-10.48-0.42-21.14-0.37-31.37 2.22-6.56 1.77-13.66 4.53-17.28 10.67-3.58 5.92-2.1 13.1-2.41 19.65-0.23 6.94-0.3 14.81 4.91 20.14 7.91 8.12 19.74 10.2 30.52 11.55 18.78 3.12 38.34 4.59 55.66 13.16 9 4.49 17.3 11.55 21 21.13 2.09 5.06 2.35 10.61 2.32 16.02-0.06 15.65 0.02 31.31-0.03 46.96 0.12 9.44-4.6 18.71-12.3 24.16-12.19 8.71-27.54 11.06-42.11 12.38-19.26 1.03-38.91 1.05-57.7-3.84-10.03-2.85-20.34-7.64-26.18-16.7-4.08-6.15-4.9-13.75-4.67-20.96 0.07-8.6-0.35-17.2-0.16-25.81 9.6-0.35 19.23-0.28 28.84-0.05 0.42 8.57-0.51 17.16 0.13 25.72 0.45 5.03 3.54 9.51 7.69 12.25 7.08 4.77 15.75 6.12 24.08 6.87 10.77 0.85 21.73 0.72 32.34-1.52 7.05-1.49 14.54-4.24 18.8-10.42 2.92-4.06 2.82-9.27 2.81-14.04-0.12-11.02 0.11-22.03-0.1-33.04-0.04-6.66-4.36-12.55-9.97-15.79-9.62-5.7-21.06-6.36-31.84-8.17-18.82-2.98-38.47-4.99-55.37-14.53-9.05-4.93-16.89-13.8-17.14-24.56-0.17-12.99-0.04-25.98-0.06-38.97-0.09-9.72 4.91-19.09 12.84-24.64z"
                  id="svg_20" fill="#dadada" fill-opacity="1"/>
            <path d="m501.14 114.82c11.58-0.43 23.2-0.16 34.8-0.08 1.89 2.8 2.94 6.03 4.27 9.11 17.74 41.59 35.5 83.17 53.22 124.76 3.19 7.15 5.91 14.52 9.37 21.54 0.56-7.04 0.14-14.1 0.19-21.15 0.28-44.62 0.41-89.24 0.45-133.86 2.42-0.9 5.04-0.51 7.57-0.57 7.06 0.2 14.14-0.26 21.2 0.23 0.51 15.05 0.06 30.13 0.21 45.2 0 52 0.01 104 0 156-0.03 4.7 0.21 9.4-0.21 14.08-6.4 0.41-12.81 0.06-19.21 0.12-5.24-0.12-10.51 0.31-15.73-0.36-17.09-39.67-33.89-79.48-50.92-119.18-5.38-12.2-10.09-24.72-15.94-36.7-0.15 52.04 0.11 104.09-0.44 156.11-9.6 0.32-19.23 0.33-28.83 0-0.34-56.01-0.05-112.05-0.14-168.07 0.1-15.72-0.21-31.46 0.14-47.18z"
                  id="svg_21" fill="#dadada" fill-opacity="1"/>
            <path d="m833.3 114.9c9.58-0.58 19.23-0.38 28.82-0.09 0.43 16.05 0.04 32.12 0.14 48.19-0.01 41.01-0.1 82.02-0.24 123.04-0.06 4.59 0.56 9.56 3.7 13.17 5.35 6.49 14 8.61 21.9 10.06 10.9 1.56 22.02 1.54 32.94 0.26 7.5-0.91 15.24-2.88 21.22-7.71 4.1-3.29 6.39-8.5 6.22-13.75 0.04-49.69-0.21-99.38-0.23-149.07 0.08-8.06-0.29-16.13 0.15-24.19 9.6-0.33 19.25-0.43 28.85 0.05 0 59.39-0.25 118.79-0.18 178.18 0.37 9.13-2.7 18.67-9.69 24.83-11.16 9.88-26.55 12.56-40.87 14.3-18.94 1.46-38.21 1.48-56.89-2.39-9.56-2.13-19.28-5.55-26.51-12.4-6.06-5.74-9.28-14.1-9.01-22.41 0.06-60.02-0.27-120.05-0.32-180.07z"
                  id="svg_22" fill="#dadada" fill-opacity="1"/>
        </g>
        <g fill="#c39b30" id="svg_23" class="">
            <path d="m261.99 138.53c2.44-0.57 3.1 3.94 1.43 5.24-0.51-1.74-1.05-3.47-1.43-5.24z" id="svg_24"/>
            <path d="m1075.9 151.75c15.33-0.8 30.84-0.98 46.04 1.57 12.17 2.2 24.84 6.01 33.75 15.04 7 6.92 9.77 17.03 9.56 26.66-0.05 19.38 0.42 38.77-0.04 58.14-37.67 0.49-75.37 0.06-113.05 0.2-1.11 8.81-0.25 17.76-0.61 26.62-0.47 7.21 3.04 14.47 9.23 18.28 8.97 5.65 19.94 6.48 30.27 6.86 10.38-0.04 21.21-0.8 30.69-5.4 5.2-2.64 9.67-7.23 11.02-13.03 1.42-6.05 0.32-12.29 0.6-18.42 10.59-0.33 21.2-0.17 31.8-0.1 0.54 7.27 0.09 14.57-0.02 21.84-0.18 9.11-4.01 18.16-10.82 24.28-7.76 7.05-17.97 10.69-28.07 12.85-16.18 3.49-32.86 3.14-49.29 2.5-14.88-1.29-30.49-3.76-42.93-12.62-8.99-6.28-14.28-17.12-14.17-28.04-0.12-31.66-0.03-63.31-0.04-94.97-0.17-10.3 3.54-20.92 11.61-27.64 12.3-10.38 28.91-13.22 44.47-14.62m-12.95 30.06c-6.86 3.29-11.6 10.52-11.37 18.2 0.12 9.29-0.2 18.6 0.35 27.87 27.06 0.16 54.14 0.15 81.21 0 0.56-8.28 0.11-16.59 0.37-24.88 0.27-5.82-0.88-12.07-5.07-16.39-6.92-7.16-17.33-9.18-26.86-10.07-12.97-0.69-26.75-0.73-38.63 5.27z"
                  id="svg_25"/>
            <path d="m1248.9 151.89c9.61-1.1 19.41-1.34 29 0.22 8.63 1.44 17.26 5.16 22.98 12 6.26 7.39 8.81 17.28 8.88 26.83 0.07 7.38 0.48 14.77 0.17 22.15-10.6 0.34-21.25 0.34-31.85 0-0.32-8.4 1.62-17.54-2.92-25.18-4.72-8.44-15.18-11.12-24.19-11.34-9.8-0.33-21.14 0.51-28.2 8.22-5.48 5.99-5.37 14.6-5.18 22.21 0.04 39.93 0.11 79.87 0.12 119.8-10.6 0.39-21.23 0.22-31.84 0.1-0.53-23.28-0.07-46.6-0.22-69.9-0.01-30.33 0-60.67-0.01-91 0.03-3.89-0.34-7.82 0.43-11.66 10.53-0.03 21.06-0.06 31.59 0.01 0.49 6.56 0.4 13.14 0.64 19.71 1.42-4.17 2.67-8.66 5.94-11.83 6.42-6.61 15.81-9.04 24.66-10.34z"
                  id="svg_26"/>
            <path d="m1347.4 295.47c4.83-0.83 10.19-0.9 14.61 1.53 3.9 2.18 5.74 6.69 6.11 10.97 0.43 5.07 0.2 10.78-3.19 14.89-2.61 3.2-6.91 4.23-10.85 4.4-4.44 0.22-9.38-0.33-12.75-3.53-2.75-2.46-3.79-6.22-4.04-9.77-0.28-4.29-0.22-8.88 1.96-12.73 1.64-3.05 4.78-5.1 8.15-5.76z"
                  id="svg_27"/>
        </g>
        <g fill="#ea7128" id="svg_28">
            <path d="m169.94 146.13c1.77-1.31 3.38-2.85 5.3-3.92 2.69-0.49 5.73 0.04 7.64 2.14 2.34 4.67 3.25 9.91 3.01 15.11-0.23 7.42 1.56 14.66 2.53 21.97-0.05 6.92 0.7 14.51-3.43 20.53-2.55 4.54-7.19 7.12-11.21 10.16-0.23 10.23 2.04 20.35 1.8 30.61-11.85 0.11-23.28-4.02-35.18-3.12-0.1-4 0.1-8.06-1.05-11.94-1.54-4.61-0.89-9.54-1.85-14.26-2.45-1.63-5.13-2.88-7.58-4.51-6.69-4.19-8.61-12.37-10.05-19.58-1.29-5.34-1.77-10.9-0.68-16.32 0.35-3.27 3.94-3.72 6.43-4.6 0.67-5.94-2.03-13.2 2.76-17.97 3.01-3 7.2-1.18 10.68-0.29 2.05-1.4 3.8-3.22 5.98-4.41 3.55-1.23 6.42 2.06 9.78 2.27 2.39-1.42 4.11-4.36 7.14-4.39 2.78 0.38 5.32 1.69 7.98 2.52z"
                  id="svg_29"/>
            <path d="m143.14 307.08c11.18 5.58 24.05 6.18 36.26 4.66 1.24 7.9-1.03 15.73-2.24 23.48-2.23 10.72-3.83 21.55-5.99 32.29-1.57 7.13-3.22 14.25-4.44 21.46 2.95 3.36 7.79 3.13 11.77 4.3 12.58 3.22 25.55 4.39 38.49 4.93 7.04 0.25 14.03-0.78 21.05-1.18 5.72-0.32 11.23-2.09 16.94-2.45 1.7 2.76 1.55 6.2 2.36 9.28 0.46 3.11 1.76 6.26 1.07 9.43-10.52 2.03-21.2 3.15-31.91 3.49-8.49 1.22-16.97-0.47-25.47-0.52-17.16-1.27-33.94-5.54-50.14-11.19-15.86-5.74-30.75-13.85-44.78-23.14-18.86-13.5-35.8-29.84-49.15-48.84-0.17-0.43-0.53-1.28-0.7-1.7 3.87-3.23 8.13-5.95 12.22-8.89 1.21-0.83 3.29-2.17 4.33-0.37 11.22 16.16 25.43 30.16 41.19 41.89 3.85 2.8 7.77 5.58 12.19 7.41 1.53-2.52 2.12-5.42 2.91-8.21 5.68-18.44 10.45-37.18 14.04-56.13z"
                  id="svg_30"/>
        </g>
    </g>
</svg>