<?xml version="1.0" encoding="UTF-8"?>
<svg xmlns="http://www.w3.org/2000/svg" width="20pt" height="20pt"
     viewBox="0 0 20 20" version="1.1">
    <g id="surface1">
        <path style=" stroke:none;fill-rule:nonzero;fill:#FFFFFF;fill-opacity:1;"
              d="M 7.5 1.667969 L 5.832031 3.332031 L 3.332031 3.332031 C 2.414063 3.332031 1.667969 4.082031 1.667969 5 L 1.667969 15 C 1.667969 15.917969 2.414063 16.667969 3.332031 16.667969 L 16.667969 16.667969 C 17.585938 16.667969 18.332031 15.917969 18.332031 15 L 18.332031 5 C 18.332031 4.082031 17.585938 3.332031 16.667969 3.332031 L 14.167969 3.332031 L 12.5 1.667969 Z M 10 5.832031 C 12.332031 5.832031 14.167969 7.667969 14.167969 10 C 14.167969 12.332031 12.332031 14.167969 10 14.167969 C 7.667969 14.167969 5.832031 12.332031 5.832031 10 C 5.832031 7.667969 7.667969 5.832031 10 5.832031 Z M 10 7.082031 C 8.386719 7.082031 7.082031 8.386719 7.082031 10 C 7.082031 11.613281 8.386719 12.917969 10 12.917969 C 11.613281 12.917969 12.917969 11.613281 12.917969 10 C 12.917969 8.386719 11.613281 7.082031 10 7.082031 Z "/>
    </g>
</svg>
